<?xml version="1.0" encoding="UTF-8" standalone="no"?>
<!DOCTYPE svg PUBLIC "-//W3C//DTD SVG 1.1//EN"
 "http://www.w3.org/Graphics/SVG/1.1/DTD/svg11.dtd">
<!-- Generated by graphviz version 2.38.0 (20140413.2041)
 -->
<!-- Title: %3 Pages: 1 -->
<svg width="1241pt" height="404pt"
 viewBox="0.00 0.00 1240.82 404.00" xmlns="http://www.w3.org/2000/svg" xmlns:xlink="http://www.w3.org/1999/xlink">
<g id="graph0" class="graph" transform="scale(1 1) rotate(0) translate(4 400)">
<title>%3</title>
<polygon fill="white" stroke="none" points="-4,4 -4,-400 1236.82,-400 1236.82,4 -4,4"/>
<!-- alice.tuplecentre.core.AbstractBehaviourSpecification -->
<g id="node1" class="node"><title>alice.tuplecentre.core.AbstractBehaviourSpecification</title>
<ellipse fill="blue" stroke="red" cx="204.732" cy="-378" rx="204.964" ry="18"/>
<text text-anchor="middle" x="204.732" y="-374.3" font-family="Times New Roman,serif" font-size="14.00">alice.tuplecentre.core.AbstractBehaviourSpecification</text>
</g>
<!-- alice.tuplecentre.core.AbstractEvent -->
<g id="node2" class="node"><title>alice.tuplecentre.core.AbstractEvent</title>
<ellipse fill="blue" stroke="red" cx="642.732" cy="-162" rx="141.875" ry="18"/>
<text text-anchor="middle" x="642.732" y="-158.3" font-family="Times New Roman,serif" font-size="14.00">alice.tuplecentre.core.AbstractEvent</text>
</g>
<!-- alice.tuplecentre.core.AbstractTupleCentreOperation -->
<g id="node4" class="node"><title>alice.tuplecentre.core.AbstractTupleCentreOperation</title>
<ellipse fill="blue" stroke="red" cx="557.732" cy="-90" rx="202.264" ry="18"/>
<text text-anchor="middle" x="557.732" y="-86.3" font-family="Times New Roman,serif" font-size="14.00">alice.tuplecentre.core.AbstractTupleCentreOperation</text>
</g>
<!-- alice.tuplecentre.core.AbstractEvent&#45;&gt;alice.tuplecentre.core.AbstractTupleCentreOperation -->
<g id="edge1" class="edge"><title>alice.tuplecentre.core.AbstractEvent&#45;&gt;alice.tuplecentre.core.AbstractTupleCentreOperation</title>
<path fill="none" stroke="black" d="M622.156,-144.055C611.377,-135.179 598.008,-124.169 586.247,-114.483"/>
<polygon fill="black" stroke="black" points="588.357,-111.687 578.413,-108.032 583.907,-117.09 588.357,-111.687"/>
</g>
<!-- alice.tuplecentre.core.AbstractOperationId -->
<g id="node3" class="node"><title>alice.tuplecentre.core.AbstractOperationId</title>
<ellipse fill="blue" stroke="red" cx="939.732" cy="-378" rx="165.171" ry="18"/>
<text text-anchor="middle" x="939.732" y="-374.3" font-family="Times New Roman,serif" font-size="14.00">alice.tuplecentre.core.AbstractOperationId</text>
</g>
<!-- alice.tuplecentre.core.OperationCompletionListener -->
<g id="node6" class="node"><title>alice.tuplecentre.core.OperationCompletionListener</title>
<ellipse fill="blue" stroke="red" cx="377.732" cy="-18" rx="196.865" ry="18"/>
<text text-anchor="middle" x="377.732" y="-14.3" font-family="Times New Roman,serif" font-size="14.00">alice.tuplecentre.core.OperationCompletionListener</text>
</g>
<!-- alice.tuplecentre.core.AbstractTupleCentreOperation&#45;&gt;alice.tuplecentre.core.OperationCompletionListener -->
<g id="edge4" class="edge"><title>alice.tuplecentre.core.AbstractTupleCentreOperation&#45;&gt;alice.tuplecentre.core.OperationCompletionListener</title>
<path fill="none" stroke="black" d="M509.234,-72.411C482.788,-62.5449 450.28,-49.9503 424.163,-39.4693"/>
<polygon fill="black" stroke="black" points="425.437,-36.209 414.854,-35.7125 422.817,-42.7004 425.437,-36.209"/>
</g>
<!-- alice.tuplecentre.core.TCCycleResult -->
<g id="node10" class="node"><title>alice.tuplecentre.core.TCCycleResult</title>
<ellipse fill="blue" stroke="red" cx="738.732" cy="-18" rx="145.674" ry="18"/>
<text text-anchor="middle" x="738.732" y="-14.3" font-family="Times New Roman,serif" font-size="14.00">alice.tuplecentre.core.TCCycleResult</text>
</g>
<!-- alice.tuplecentre.core.AbstractTupleCentreOperation&#45;&gt;alice.tuplecentre.core.TCCycleResult -->
<g id="edge2" class="edge"><title>alice.tuplecentre.core.AbstractTupleCentreOperation&#45;&gt;alice.tuplecentre.core.TCCycleResult</title>
<path fill="none" stroke="black" d="M601.086,-72.2333C627,-62.2111 660.07,-49.4216 687.3,-38.8906"/>
<polygon fill="black" stroke="black" points="688.603,-42.1396 696.667,-35.2681 686.078,-35.6108 688.603,-42.1396"/>
</g>
<!-- alice.tuplecentre.core.TupleCentreOpType -->
<g id="node12" class="node"><title>alice.tuplecentre.core.TupleCentreOpType</title>
<ellipse fill="blue" stroke="red" cx="1067.73" cy="-18" rx="165.171" ry="18"/>
<text text-anchor="middle" x="1067.73" y="-14.3" font-family="Times New Roman,serif" font-size="14.00">alice.tuplecentre.core.TupleCentreOpType</text>
</g>
<!-- alice.tuplecentre.core.AbstractTupleCentreOperation&#45;&gt;alice.tuplecentre.core.TupleCentreOpType -->
<g id="edge3" class="edge"><title>alice.tuplecentre.core.AbstractTupleCentreOperation&#45;&gt;alice.tuplecentre.core.TupleCentreOpType</title>
<path fill="none" stroke="black" d="M662.786,-74.5808C749.404,-62.692 871.822,-45.8896 959.343,-33.8769"/>
<polygon fill="black" stroke="black" points="959.871,-37.3373 969.303,-32.5099 958.919,-30.4023 959.871,-37.3373"/>
</g>
<!-- alice.tuplecentre.core.InputEvent -->
<g id="node5" class="node"><title>alice.tuplecentre.core.InputEvent</title>
<ellipse fill="blue" stroke="red" cx="478.732" cy="-234" rx="129.177" ry="18"/>
<text text-anchor="middle" x="478.732" y="-230.3" font-family="Times New Roman,serif" font-size="14.00">alice.tuplecentre.core.InputEvent</text>
</g>
<!-- alice.tuplecentre.core.InputEvent&#45;&gt;alice.tuplecentre.core.AbstractEvent -->
<g id="edge5" class="edge"><title>alice.tuplecentre.core.InputEvent&#45;&gt;alice.tuplecentre.core.AbstractEvent</title>
<path fill="none" stroke="black" d="M516.769,-216.765C540.094,-206.809 570.158,-193.977 595.065,-183.346"/>
<polygon fill="black" stroke="black" points="596.51,-186.535 604.333,-179.39 593.762,-180.096 596.51,-186.535"/>
</g>
<!-- alice.tuplecentre.core.InputEvent&#45;&gt;alice.tuplecentre.core.AbstractTupleCentreOperation -->
<g id="edge6" class="edge"><title>alice.tuplecentre.core.InputEvent&#45;&gt;alice.tuplecentre.core.AbstractTupleCentreOperation</title>
<path fill="none" stroke="black" d="M477.642,-215.735C477.236,-196.872 478.938,-166.364 491.732,-144 498.477,-132.209 508.956,-122.023 519.594,-113.82"/>
<polygon fill="black" stroke="black" points="521.66,-116.645 527.699,-107.94 517.55,-110.978 521.66,-116.645"/>
</g>
<!-- alice.tuplecentre.core.OperationCompletionListener&#45;&gt;alice.tuplecentre.core.AbstractTupleCentreOperation -->
<g id="edge7" class="edge"><title>alice.tuplecentre.core.OperationCompletionListener&#45;&gt;alice.tuplecentre.core.AbstractTupleCentreOperation</title>
<path fill="none" stroke="black" d="M426.015,-35.509C452.449,-45.368 484.988,-57.973 511.15,-68.4702"/>
<polygon fill="black" stroke="black" points="509.893,-71.7374 520.477,-72.2333 512.512,-65.2459 509.893,-71.7374"/>
</g>
<!-- alice.tuplecentre.core.OutputEvent -->
<g id="node7" class="node"><title>alice.tuplecentre.core.OutputEvent</title>
<ellipse fill="blue" stroke="red" cx="509.732" cy="-306" rx="135.676" ry="18"/>
<text text-anchor="middle" x="509.732" y="-302.3" font-family="Times New Roman,serif" font-size="14.00">alice.tuplecentre.core.OutputEvent</text>
</g>
<!-- alice.tuplecentre.core.OutputEvent&#45;&gt;alice.tuplecentre.core.AbstractEvent -->
<g id="edge9" class="edge"><title>alice.tuplecentre.core.OutputEvent&#45;&gt;alice.tuplecentre.core.AbstractEvent</title>
<path fill="none" stroke="black" d="M561.799,-289.314C581.453,-281.048 602.484,-269 616.732,-252 631.302,-234.616 637.709,-209.406 640.526,-190.251"/>
<polygon fill="black" stroke="black" points="644,-190.674 641.751,-180.321 637.053,-189.817 644,-190.674"/>
</g>
<!-- alice.tuplecentre.core.OutputEvent&#45;&gt;alice.tuplecentre.core.InputEvent -->
<g id="edge8" class="edge"><title>alice.tuplecentre.core.OutputEvent&#45;&gt;alice.tuplecentre.core.InputEvent</title>
<path fill="none" stroke="black" d="M502.069,-287.697C498.54,-279.728 494.276,-270.1 490.363,-261.264"/>
<polygon fill="black" stroke="black" points="493.556,-259.831 486.307,-252.104 487.156,-262.665 493.556,-259.831"/>
</g>
<!-- alice.tuplecentre.core.OutputEventListener -->
<g id="node8" class="node"><title>alice.tuplecentre.core.OutputEventListener</title>
<ellipse fill="blue" stroke="red" cx="591.732" cy="-378" rx="164.371" ry="18"/>
<text text-anchor="middle" x="591.732" y="-374.3" font-family="Times New Roman,serif" font-size="14.00">alice.tuplecentre.core.OutputEventListener</text>
</g>
<!-- alice.tuplecentre.core.OutputEventListener&#45;&gt;alice.tuplecentre.core.AbstractEvent -->
<g id="edge10" class="edge"><title>alice.tuplecentre.core.OutputEventListener&#45;&gt;alice.tuplecentre.core.AbstractEvent</title>
<path fill="none" stroke="black" d="M621.37,-360.271C634.143,-351.322 647.734,-339.031 654.732,-324 674.906,-280.664 662.875,-223.616 652.595,-190.357"/>
<polygon fill="black" stroke="black" points="655.79,-188.865 649.362,-180.443 649.135,-191.035 655.79,-188.865"/>
</g>
<!-- alice.tuplecentre.core.OutputEventListener&#45;&gt;alice.tuplecentre.core.OutputEvent -->
<g id="edge11" class="edge"><title>alice.tuplecentre.core.OutputEventListener&#45;&gt;alice.tuplecentre.core.OutputEvent</title>
<path fill="none" stroke="black" d="M571.882,-360.055C561.584,-351.264 548.834,-340.38 537.568,-330.763"/>
<polygon fill="black" stroke="black" points="539.561,-327.862 529.683,-324.032 535.016,-333.186 539.561,-327.862"/>
</g>
<!-- alice.tuplecentre.core.Reaction -->
<g id="node9" class="node"><title>alice.tuplecentre.core.Reaction</title>
<ellipse fill="blue" stroke="red" cx="924.732" cy="-162" rx="122.379" ry="18"/>
<text text-anchor="middle" x="924.732" y="-158.3" font-family="Times New Roman,serif" font-size="14.00">alice.tuplecentre.core.Reaction</text>
</g>
<!-- alice.tuplecentre.core.TriggeredReaction -->
<g id="node11" class="node"><title>alice.tuplecentre.core.TriggeredReaction</title>
<ellipse fill="blue" stroke="red" cx="894.732" cy="-234" rx="157.072" ry="18"/>
<text text-anchor="middle" x="894.732" y="-230.3" font-family="Times New Roman,serif" font-size="14.00">alice.tuplecentre.core.TriggeredReaction</text>
</g>
<!-- alice.tuplecentre.core.TriggeredReaction&#45;&gt;alice.tuplecentre.core.AbstractEvent -->
<g id="edge13" class="edge"><title>alice.tuplecentre.core.TriggeredReaction&#45;&gt;alice.tuplecentre.core.AbstractEvent</title>
<path fill="none" stroke="black" d="M837.864,-217.203C799.509,-206.549 748.776,-192.457 708.654,-181.312"/>
<polygon fill="black" stroke="black" points="709.53,-177.923 698.958,-178.618 707.657,-184.667 709.53,-177.923"/>
</g>
<!-- alice.tuplecentre.core.TriggeredReaction&#45;&gt;alice.tuplecentre.core.Reaction -->
<g id="edge12" class="edge"><title>alice.tuplecentre.core.TriggeredReaction&#45;&gt;alice.tuplecentre.core.Reaction</title>
<path fill="none" stroke="black" d="M902.148,-215.697C905.526,-207.813 909.601,-198.304 913.355,-189.546"/>
<polygon fill="black" stroke="black" points="916.679,-190.675 917.401,-180.104 910.245,-187.917 916.679,-190.675"/>
</g>
</g>
</svg>
