<?xml version="1.0" encoding="UTF-8" standalone="no"?>
<!DOCTYPE svg PUBLIC "-//W3C//DTD SVG 1.1//EN"
 "http://www.w3.org/Graphics/SVG/1.1/DTD/svg11.dtd">
<!-- Generated by graphviz version 2.38.0 (20140413.2041)
 -->
<!-- Title: %3 Pages: 1 -->
<svg width="2444pt" height="332pt"
 viewBox="0.00 0.00 2444.19 332.00" xmlns="http://www.w3.org/2000/svg" xmlns:xlink="http://www.w3.org/1999/xlink">
<g id="graph0" class="graph" transform="scale(1 1) rotate(0) translate(4 328)">
<title>%3</title>
<polygon fill="white" stroke="none" points="-4,4 -4,-328 2440.19,-328 2440.19,4 -4,4"/>
<!-- alice.tuplecentre.api.AgentIdentifier -->
<g id="node1" class="node"><title>alice.tuplecentre.api.AgentIdentifier</title>
<ellipse fill="blue" stroke="red" cx="1076.21" cy="-162" rx="137.576" ry="18"/>
<text text-anchor="middle" x="1076.21" y="-158.3" font-family="Times New Roman,serif" font-size="14.00">alice.tuplecentre.api.AgentIdentifier</text>
</g>
<!-- alice.tuplecentre.api.EmitterIdentifier -->
<g id="node2" class="node"><title>alice.tuplecentre.api.EmitterIdentifier</title>
<ellipse fill="blue" stroke="red" cx="908.209" cy="-90" rx="142.175" ry="18"/>
<text text-anchor="middle" x="908.209" y="-86.3" font-family="Times New Roman,serif" font-size="14.00">alice.tuplecentre.api.EmitterIdentifier</text>
</g>
<!-- alice.tuplecentre.api.AgentIdentifier&#45;&gt;alice.tuplecentre.api.EmitterIdentifier -->
<g id="edge1" class="edge"><title>alice.tuplecentre.api.AgentIdentifier&#45;&gt;alice.tuplecentre.api.EmitterIdentifier</title>
<path fill="none" stroke="black" d="M1036.82,-144.588C1012.91,-134.627 982.214,-121.835 956.805,-111.248"/>
<polygon fill="black" stroke="black" points="957.927,-107.925 947.351,-107.309 955.235,-114.386 957.927,-107.925"/>
</g>
<!-- alice.tuplecentre.api.Identifier -->
<g id="node8" class="node"><title>alice.tuplecentre.api.Identifier</title>
<ellipse fill="blue" stroke="red" cx="1078.21" cy="-18" rx="116.18" ry="18"/>
<text text-anchor="middle" x="1078.21" y="-14.3" font-family="Times New Roman,serif" font-size="14.00">alice.tuplecentre.api.Identifier</text>
</g>
<!-- alice.tuplecentre.api.AgentIdentifier&#45;&gt;alice.tuplecentre.api.Identifier -->
<g id="edge2" class="edge"><title>alice.tuplecentre.api.AgentIdentifier&#45;&gt;alice.tuplecentre.api.Identifier</title>
<path fill="none" stroke="black" d="M1076.45,-143.871C1076.79,-119.67 1077.42,-75.2108 1077.82,-46.3932"/>
<polygon fill="black" stroke="black" points="1081.33,-46.2376 1077.97,-36.1893 1074.33,-46.1389 1081.33,-46.2376"/>
</g>
<!-- alice.tuplecentre.api.EmitterIdentifier&#45;&gt;alice.tuplecentre.api.Identifier -->
<g id="edge3" class="edge"><title>alice.tuplecentre.api.EmitterIdentifier&#45;&gt;alice.tuplecentre.api.Identifier</title>
<path fill="none" stroke="black" d="M948.066,-72.5881C972.539,-62.5109 1004.05,-49.5375 1029.93,-38.8798"/>
<polygon fill="black" stroke="black" points="1031.27,-42.1116 1039.19,-35.0676 1028.61,-35.6388 1031.27,-42.1116"/>
</g>
<!-- alice.tuplecentre.api.exceptions.InvalidCoordinationOperationException -->
<g id="node3" class="node"><title>alice.tuplecentre.api.exceptions.InvalidCoordinationOperationException</title>
<ellipse fill="blue" stroke="red" cx="1268.21" cy="-306" rx="270.252" ry="18"/>
<text text-anchor="middle" x="1268.21" y="-302.3" font-family="Times New Roman,serif" font-size="14.00">alice.tuplecentre.api.exceptions.InvalidCoordinationOperationException</text>
</g>
<!-- alice.tuplecentre.api.exceptions.InvalidOperationException -->
<g id="node4" class="node"><title>alice.tuplecentre.api.exceptions.InvalidOperationException</title>
<ellipse fill="blue" stroke="red" cx="1779.21" cy="-306" rx="222.86" ry="18"/>
<text text-anchor="middle" x="1779.21" y="-302.3" font-family="Times New Roman,serif" font-size="14.00">alice.tuplecentre.api.exceptions.InvalidOperationException</text>
</g>
<!-- alice.tuplecentre.api.exceptions.InvalidTupleException -->
<g id="node5" class="node"><title>alice.tuplecentre.api.exceptions.InvalidTupleException</title>
<ellipse fill="blue" stroke="red" cx="2228.21" cy="-306" rx="207.963" ry="18"/>
<text text-anchor="middle" x="2228.21" y="-302.3" font-family="Times New Roman,serif" font-size="14.00">alice.tuplecentre.api.exceptions.InvalidTupleException</text>
</g>
<!-- alice.tuplecentre.api.exceptions.OperationNotPossibleException -->
<g id="node6" class="node"><title>alice.tuplecentre.api.exceptions.OperationNotPossibleException</title>
<ellipse fill="blue" stroke="red" cx="639.209" cy="-162" rx="243.157" ry="18"/>
<text text-anchor="middle" x="639.209" y="-158.3" font-family="Times New Roman,serif" font-size="14.00">alice.tuplecentre.api.exceptions.OperationNotPossibleException</text>
</g>
<!-- alice.tuplecentre.api.exceptions.OperationTimeOutException -->
<g id="node7" class="node"><title>alice.tuplecentre.api.exceptions.OperationTimeOutException</title>
<ellipse fill="blue" stroke="red" cx="1801.21" cy="-90" rx="230.959" ry="18"/>
<text text-anchor="middle" x="1801.21" y="-86.3" font-family="Times New Roman,serif" font-size="14.00">alice.tuplecentre.api.exceptions.OperationTimeOutException</text>
</g>
<!-- alice.tuplecentre.api.ITCCycleResult -->
<g id="node9" class="node"><title>alice.tuplecentre.api.ITCCycleResult</title>
<ellipse fill="blue" stroke="red" cx="2193.21" cy="-90" rx="143.775" ry="18"/>
<text text-anchor="middle" x="2193.21" y="-86.3" font-family="Times New Roman,serif" font-size="14.00">alice.tuplecentre.api.ITCCycleResult</text>
</g>
<!-- alice.tuplecentre.api.ITupleCentre -->
<g id="node10" class="node"><title>alice.tuplecentre.api.ITupleCentre</title>
<ellipse fill="blue" stroke="red" cx="910.209" cy="-234" rx="131.877" ry="18"/>
<text text-anchor="middle" x="910.209" y="-230.3" font-family="Times New Roman,serif" font-size="14.00">alice.tuplecentre.api.ITupleCentre</text>
</g>
<!-- alice.tuplecentre.api.ITupleCentre&#45;&gt;alice.tuplecentre.api.EmitterIdentifier -->
<g id="edge5" class="edge"><title>alice.tuplecentre.api.ITupleCentre&#45;&gt;alice.tuplecentre.api.EmitterIdentifier</title>
<path fill="none" stroke="black" d="M909.968,-215.871C909.627,-191.67 909,-147.211 908.595,-118.393"/>
<polygon fill="black" stroke="black" points="912.091,-118.139 908.451,-108.189 905.092,-118.238 912.091,-118.139"/>
</g>
<!-- alice.tuplecentre.api.ITupleCentre&#45;&gt;alice.tuplecentre.api.exceptions.OperationNotPossibleException -->
<g id="edge4" class="edge"><title>alice.tuplecentre.api.ITupleCentre&#45;&gt;alice.tuplecentre.api.exceptions.OperationNotPossibleException</title>
<path fill="none" stroke="black" d="M851.406,-217.811C810.593,-207.269 755.939,-193.152 712.32,-181.885"/>
<polygon fill="black" stroke="black" points="713.181,-178.492 702.623,-179.38 711.43,-185.27 713.181,-178.492"/>
</g>
<!-- alice.tuplecentre.api.ITupleCentre&#45;&gt;alice.tuplecentre.api.Identifier -->
<g id="edge6" class="edge"><title>alice.tuplecentre.api.ITupleCentre&#45;&gt;alice.tuplecentre.api.Identifier</title>
<path fill="none" stroke="black" d="M1034.85,-227.951C1111.24,-221.941 1198.89,-208.785 1223.21,-180 1233.53,-167.778 1229.87,-158.546 1223.21,-144 1211.24,-117.876 1149.28,-70.0105 1110.33,-41.6951"/>
<polygon fill="black" stroke="black" points="1112.07,-38.6383 1101.92,-35.6239 1107.98,-44.3144 1112.07,-38.6383"/>
</g>
<!-- alice.tuplecentre.api.TupleCentreOperation -->
<g id="node15" class="node"><title>alice.tuplecentre.api.TupleCentreOperation</title>
<ellipse fill="blue" stroke="red" cx="1542.21" cy="-162" rx="165.171" ry="18"/>
<text text-anchor="middle" x="1542.21" y="-158.3" font-family="Times New Roman,serif" font-size="14.00">alice.tuplecentre.api.TupleCentreOperation</text>
</g>
<!-- alice.tuplecentre.api.ITupleCentre&#45;&gt;alice.tuplecentre.api.TupleCentreOperation -->
<g id="edge7" class="edge"><title>alice.tuplecentre.api.ITupleCentre&#45;&gt;alice.tuplecentre.api.TupleCentreOperation</title>
<path fill="none" stroke="black" d="M1008.96,-222.063C1120.22,-209.739 1301.13,-189.701 1420.9,-176.436"/>
<polygon fill="black" stroke="black" points="1421.3,-179.913 1430.86,-175.333 1420.53,-172.956 1421.3,-179.913"/>
</g>
<!-- alice.tuplecentre.api.ITupleCentreManagement -->
<g id="node11" class="node"><title>alice.tuplecentre.api.ITupleCentreManagement</title>
<ellipse fill="blue" stroke="red" cx="802.209" cy="-306" rx="178.168" ry="18"/>
<text text-anchor="middle" x="802.209" y="-302.3" font-family="Times New Roman,serif" font-size="14.00">alice.tuplecentre.api.ITupleCentreManagement</text>
</g>
<!-- alice.tuplecentre.api.ITupleCentreManagement&#45;&gt;alice.tuplecentre.api.exceptions.OperationNotPossibleException -->
<g id="edge8" class="edge"><title>alice.tuplecentre.api.ITupleCentreManagement&#45;&gt;alice.tuplecentre.api.exceptions.OperationNotPossibleException</title>
<path fill="none" stroke="black" d="M782.547,-287.871C753.587,-262.643 699.357,-215.399 666.54,-186.81"/>
<polygon fill="black" stroke="black" points="668.526,-183.898 658.686,-179.968 663.927,-189.176 668.526,-183.898"/>
</g>
<!-- alice.tuplecentre.api.ITupleCentreManagement&#45;&gt;alice.tuplecentre.api.ITupleCentre -->
<g id="edge9" class="edge"><title>alice.tuplecentre.api.ITupleCentreManagement&#45;&gt;alice.tuplecentre.api.ITupleCentre</title>
<path fill="none" stroke="black" d="M828.353,-288.055C842.547,-278.855 860.278,-267.363 875.604,-257.429"/>
<polygon fill="black" stroke="black" points="877.818,-260.165 884.306,-251.789 874.011,-254.291 877.818,-260.165"/>
</g>
<!-- alice.tuplecentre.api.ObservableEventListener -->
<g id="node12" class="node"><title>alice.tuplecentre.api.ObservableEventListener</title>
<ellipse fill="blue" stroke="red" cx="179.209" cy="-234" rx="174.669" ry="18"/>
<text text-anchor="middle" x="179.209" y="-230.3" font-family="Times New Roman,serif" font-size="14.00">alice.tuplecentre.api.ObservableEventListener</text>
</g>
<!-- alice.tuplecentre.api.ObservableEventListener&#45;&gt;alice.tuplecentre.api.EmitterIdentifier -->
<g id="edge10" class="edge"><title>alice.tuplecentre.api.ObservableEventListener&#45;&gt;alice.tuplecentre.api.EmitterIdentifier</title>
<path fill="none" stroke="black" d="M253.818,-217.617C284.683,-209.293 320.006,-197.122 349.209,-180 369.278,-168.233 366.061,-153.696 387.209,-144 451.647,-114.457 630.895,-101.24 761.175,-95.4212"/>
<polygon fill="black" stroke="black" points="761.416,-98.914 771.254,-94.9813 761.111,-91.9207 761.416,-98.914"/>
</g>
<!-- alice.tuplecentre.api.ObservableEventListener&#45;&gt;alice.tuplecentre.api.Identifier -->
<g id="edge11" class="edge"><title>alice.tuplecentre.api.ObservableEventListener&#45;&gt;alice.tuplecentre.api.Identifier</title>
<path fill="none" stroke="black" d="M94.649,-218.235C37.2991,-204.587 -22.739,-180.785 9.20875,-144 70.6006,-73.3129 691.093,-36.691 957.615,-24.1215"/>
<polygon fill="black" stroke="black" points="957.893,-27.6124 967.718,-23.6486 957.565,-20.6201 957.893,-27.6124"/>
</g>
<!-- alice.tuplecentre.api.TupleCentreIdentifier -->
<g id="node14" class="node"><title>alice.tuplecentre.api.TupleCentreIdentifier</title>
<ellipse fill="blue" stroke="red" cx="179.209" cy="-162" rx="161.372" ry="18"/>
<text text-anchor="middle" x="179.209" y="-158.3" font-family="Times New Roman,serif" font-size="14.00">alice.tuplecentre.api.TupleCentreIdentifier</text>
</g>
<!-- alice.tuplecentre.api.ObservableEventListener&#45;&gt;alice.tuplecentre.api.TupleCentreIdentifier -->
<g id="edge12" class="edge"><title>alice.tuplecentre.api.ObservableEventListener&#45;&gt;alice.tuplecentre.api.TupleCentreIdentifier</title>
<path fill="none" stroke="black" d="M179.209,-215.697C179.209,-207.983 179.209,-198.712 179.209,-190.112"/>
<polygon fill="black" stroke="black" points="182.709,-190.104 179.209,-180.104 175.709,-190.104 182.709,-190.104"/>
</g>
<!-- alice.tuplecentre.api.OperationIdentifier -->
<g id="node13" class="node"><title>alice.tuplecentre.api.OperationIdentifier</title>
<ellipse fill="blue" stroke="red" cx="1361.21" cy="-90" rx="152.973" ry="18"/>
<text text-anchor="middle" x="1361.21" y="-86.3" font-family="Times New Roman,serif" font-size="14.00">alice.tuplecentre.api.OperationIdentifier</text>
</g>
<!-- alice.tuplecentre.api.OperationIdentifier&#45;&gt;alice.tuplecentre.api.Identifier -->
<g id="edge13" class="edge"><title>alice.tuplecentre.api.OperationIdentifier&#45;&gt;alice.tuplecentre.api.Identifier</title>
<path fill="none" stroke="black" d="M1298.75,-73.5515C1253.87,-62.4486 1193.35,-47.4807 1147.07,-36.0322"/>
<polygon fill="black" stroke="black" points="1147.67,-32.5754 1137.12,-33.5718 1145.99,-39.3706 1147.67,-32.5754"/>
</g>
<!-- alice.tuplecentre.api.TupleCentreIdentifier&#45;&gt;alice.tuplecentre.api.EmitterIdentifier -->
<g id="edge14" class="edge"><title>alice.tuplecentre.api.TupleCentreIdentifier&#45;&gt;alice.tuplecentre.api.EmitterIdentifier</title>
<path fill="none" stroke="black" d="M296.403,-149.592C315.715,-147.718 335.523,-145.801 354.209,-144 503.812,-129.577 676.156,-113.113 788.367,-102.414"/>
<polygon fill="black" stroke="black" points="788.738,-105.895 798.361,-101.461 788.074,-98.9262 788.738,-105.895"/>
</g>
<!-- alice.tuplecentre.api.TupleCentreIdentifier&#45;&gt;alice.tuplecentre.api.Identifier -->
<g id="edge15" class="edge"><title>alice.tuplecentre.api.TupleCentreIdentifier&#45;&gt;alice.tuplecentre.api.Identifier</title>
<path fill="none" stroke="black" d="M268.281,-146.931C440.715,-119.694 818.234,-60.0639 989.988,-32.9347"/>
<polygon fill="black" stroke="black" points="990.673,-36.37 1000,-31.3526 989.581,-29.4558 990.673,-36.37"/>
</g>
<!-- alice.tuplecentre.api.TupleCentreOperation&#45;&gt;alice.tuplecentre.api.exceptions.OperationTimeOutException -->
<g id="edge16" class="edge"><title>alice.tuplecentre.api.TupleCentreOperation&#45;&gt;alice.tuplecentre.api.exceptions.OperationTimeOutException</title>
<path fill="none" stroke="black" d="M1600.98,-145.116C1639.45,-134.719 1689.93,-121.076 1730.58,-110.089"/>
<polygon fill="black" stroke="black" points="1731.68,-113.417 1740.42,-107.429 1729.85,-106.66 1731.68,-113.417"/>
</g>
<!-- alice.tuplecentre.api.TupleCentreOperation&#45;&gt;alice.tuplecentre.api.Identifier -->
<g id="edge17" class="edge"><title>alice.tuplecentre.api.TupleCentreOperation&#45;&gt;alice.tuplecentre.api.Identifier</title>
<path fill="none" stroke="black" d="M1543.94,-143.745C1544.92,-123.409 1543.05,-90.1011 1523.21,-72 1499.33,-50.2136 1318.89,-34.3765 1195.24,-25.9468"/>
<polygon fill="black" stroke="black" points="1195.16,-22.4338 1184.95,-25.2534 1194.69,-29.4179 1195.16,-22.4338"/>
</g>
<!-- alice.tuplecentre.api.TupleCentreOperation&#45;&gt;alice.tuplecentre.api.ITCCycleResult -->
<g id="edge19" class="edge"><title>alice.tuplecentre.api.TupleCentreOperation&#45;&gt;alice.tuplecentre.api.ITCCycleResult</title>
<path fill="none" stroke="black" d="M1656.68,-149.024C1757.84,-138.398 1909.35,-122.376 2041.21,-108 2053.83,-106.624 2067.04,-105.169 2080.18,-103.712"/>
<polygon fill="black" stroke="black" points="2080.64,-107.182 2090.2,-102.6 2079.87,-100.225 2080.64,-107.182"/>
</g>
<!-- alice.tuplecentre.api.TupleCentreOperation&#45;&gt;alice.tuplecentre.api.OperationIdentifier -->
<g id="edge18" class="edge"><title>alice.tuplecentre.api.TupleCentreOperation&#45;&gt;alice.tuplecentre.api.OperationIdentifier</title>
<path fill="none" stroke="black" d="M1499.77,-144.588C1473.79,-134.539 1440.36,-121.61 1412.84,-110.969"/>
<polygon fill="black" stroke="black" points="1413.97,-107.652 1403.38,-107.309 1411.44,-114.181 1413.97,-107.652"/>
</g>
</g>
</svg>
