<?xml version="1.0" encoding="UTF-8" standalone="no"?>
<!DOCTYPE svg PUBLIC "-//W3C//DTD SVG 1.1//EN"
 "http://www.w3.org/Graphics/SVG/1.1/DTD/svg11.dtd">
<!-- Generated by graphviz version 2.38.0 (20140413.2041)
 -->
<!-- Title: %3 Pages: 1 -->
<svg width="7806pt" height="116pt"
 viewBox="0.00 0.00 7805.97 116.00" xmlns="http://www.w3.org/2000/svg" xmlns:xlink="http://www.w3.org/1999/xlink">
<g id="graph0" class="graph" transform="scale(1 1) rotate(0) translate(4 112)">
<title>%3</title>
<polygon fill="white" stroke="none" points="-4,4 -4,-112 7801.97,-112 7801.97,4 -4,4"/>
<!-- alice.tuplecentre.api.AgentIdentifier -->
<g id="node1" class="node"><title>alice.tuplecentre.api.AgentIdentifier</title>
<ellipse fill="blue" stroke="red" cx="137.788" cy="-90" rx="137.576" ry="18"/>
<text text-anchor="middle" x="137.788" y="-86.3" font-family="Times New Roman,serif" font-size="14.00">alice.tuplecentre.api.AgentIdentifier</text>
</g>
<!-- alice.tuplecentre.api.EmitterIdentifier -->
<g id="node2" class="node"><title>alice.tuplecentre.api.EmitterIdentifier</title>
<ellipse fill="blue" stroke="red" cx="435.788" cy="-90" rx="142.175" ry="18"/>
<text text-anchor="middle" x="435.788" y="-86.3" font-family="Times New Roman,serif" font-size="14.00">alice.tuplecentre.api.EmitterIdentifier</text>
</g>
<!-- alice.tuprolog.Term -->
<g id="node16" class="node"><title>alice.tuprolog.Term</title>
<ellipse fill="purple" stroke="red" cx="435.788" cy="-18" rx="81.7856" ry="18"/>
<text text-anchor="middle" x="435.788" y="-14.3" font-family="Times New Roman,serif" font-size="14.00">alice.tuprolog.Term</text>
</g>
<!-- alice.tuplecentre.api.EmitterIdentifier&#45;&gt;alice.tuprolog.Term -->
<g id="edge1" class="edge"><title>alice.tuplecentre.api.EmitterIdentifier&#45;&gt;alice.tuprolog.Term</title>
<path fill="none" stroke="black" d="M435.788,-71.6966C435.788,-63.9827 435.788,-54.7125 435.788,-46.1124"/>
<polygon fill="black" stroke="black" points="439.288,-46.1043 435.788,-36.1043 432.288,-46.1044 439.288,-46.1043"/>
</g>
<!-- alice.tuplecentre.api.exceptions.InvalidCoordinationOperationException -->
<g id="node3" class="node"><title>alice.tuplecentre.api.exceptions.InvalidCoordinationOperationException</title>
<ellipse fill="blue" stroke="red" cx="866.788" cy="-90" rx="270.252" ry="18"/>
<text text-anchor="middle" x="866.788" y="-86.3" font-family="Times New Roman,serif" font-size="14.00">alice.tuplecentre.api.exceptions.InvalidCoordinationOperationException</text>
</g>
<!-- alice.tuplecentre.api.exceptions.InvalidOperationException -->
<g id="node4" class="node"><title>alice.tuplecentre.api.exceptions.InvalidOperationException</title>
<ellipse fill="blue" stroke="red" cx="1377.79" cy="-90" rx="222.86" ry="18"/>
<text text-anchor="middle" x="1377.79" y="-86.3" font-family="Times New Roman,serif" font-size="14.00">alice.tuplecentre.api.exceptions.InvalidOperationException</text>
</g>
<!-- alice.tuplecentre.api.exceptions.InvalidTupleException -->
<g id="node5" class="node"><title>alice.tuplecentre.api.exceptions.InvalidTupleException</title>
<ellipse fill="blue" stroke="red" cx="1826.79" cy="-90" rx="207.963" ry="18"/>
<text text-anchor="middle" x="1826.79" y="-86.3" font-family="Times New Roman,serif" font-size="14.00">alice.tuplecentre.api.exceptions.InvalidTupleException</text>
</g>
<!-- alice.tuplecentre.api.exceptions.OperationNotPossibleException -->
<g id="node6" class="node"><title>alice.tuplecentre.api.exceptions.OperationNotPossibleException</title>
<ellipse fill="blue" stroke="red" cx="2295.79" cy="-90" rx="243.157" ry="18"/>
<text text-anchor="middle" x="2295.79" y="-86.3" font-family="Times New Roman,serif" font-size="14.00">alice.tuplecentre.api.exceptions.OperationNotPossibleException</text>
</g>
<!-- alice.tuplecentre.api.exceptions.OperationTimeOutException -->
<g id="node7" class="node"><title>alice.tuplecentre.api.exceptions.OperationTimeOutException</title>
<ellipse fill="blue" stroke="red" cx="2787.79" cy="-90" rx="230.959" ry="18"/>
<text text-anchor="middle" x="2787.79" y="-86.3" font-family="Times New Roman,serif" font-size="14.00">alice.tuplecentre.api.exceptions.OperationTimeOutException</text>
</g>
<!-- alice.tuplecentre.api.Identifier -->
<g id="node8" class="node"><title>alice.tuplecentre.api.Identifier</title>
<ellipse fill="blue" stroke="red" cx="3152.79" cy="-90" rx="116.18" ry="18"/>
<text text-anchor="middle" x="3152.79" y="-86.3" font-family="Times New Roman,serif" font-size="14.00">alice.tuplecentre.api.Identifier</text>
</g>
<!-- alice.tuplecentre.api.ITCCycleResult -->
<g id="node9" class="node"><title>alice.tuplecentre.api.ITCCycleResult</title>
<ellipse fill="blue" stroke="red" cx="3870.79" cy="-90" rx="143.775" ry="18"/>
<text text-anchor="middle" x="3870.79" y="-86.3" font-family="Times New Roman,serif" font-size="14.00">alice.tuplecentre.api.ITCCycleResult</text>
</g>
<!-- alice.tuple.Tuple -->
<g id="node17" class="node"><title>alice.tuple.Tuple</title>
<ellipse fill="purple" stroke="red" cx="3365.79" cy="-18" rx="70.3881" ry="18"/>
<text text-anchor="middle" x="3365.79" y="-14.3" font-family="Times New Roman,serif" font-size="14.00">alice.tuple.Tuple</text>
</g>
<!-- alice.tuplecentre.api.ITCCycleResult&#45;&gt;alice.tuple.Tuple -->
<g id="edge2" class="edge"><title>alice.tuplecentre.api.ITCCycleResult&#45;&gt;alice.tuple.Tuple</title>
<path fill="none" stroke="black" d="M3762.29,-78.1705C3675.97,-68.9125 3552.25,-54.2114 3444.79,-36 3438.71,-34.9694 3432.38,-33.7913 3426.08,-32.5468"/>
<polygon fill="black" stroke="black" points="3426.73,-29.107 3416.23,-30.5482 3425.34,-35.9672 3426.73,-29.107"/>
</g>
<!-- alice.tuplecentre.core.TCCycleResult -->
<g id="node18" class="node"><title>alice.tuplecentre.core.TCCycleResult</title>
<ellipse fill="red" stroke="red" cx="3942.79" cy="-18" rx="262.653" ry="18"/>
<text text-anchor="middle" x="3942.79" y="-14.3" font-family="Times New Roman,serif" font-size="14.00">.\tucson\core\src\main\java\alice\tuplecentre\core\TCCycleResult.java</text>
</g>
<!-- alice.tuplecentre.api.ITCCycleResult&#45;&gt;alice.tuplecentre.core.TCCycleResult -->
<g id="edge3" class="edge"><title>alice.tuplecentre.api.ITCCycleResult&#45;&gt;alice.tuplecentre.core.TCCycleResult</title>
<path fill="none" stroke="black" d="M3888.22,-72.055C3897.17,-63.3492 3908.24,-52.5913 3918.06,-43.0432"/>
<polygon fill="black" stroke="black" points="3920.54,-45.5119 3925.27,-36.0316 3915.66,-40.4929 3920.54,-45.5119"/>
</g>
<!-- alice.tuplecentre.api.ITupleCentre -->
<g id="node10" class="node"><title>alice.tuplecentre.api.ITupleCentre</title>
<ellipse fill="blue" stroke="red" cx="6008.79" cy="-90" rx="131.877" ry="18"/>
<text text-anchor="middle" x="6008.79" y="-86.3" font-family="Times New Roman,serif" font-size="14.00">alice.tuplecentre.api.ITupleCentre</text>
</g>
<!-- alice.tuplecentre.core.AbstractTupleCentreOperation -->
<g id="node19" class="node"><title>alice.tuplecentre.core.AbstractTupleCentreOperation</title>
<ellipse fill="red" stroke="red" cx="6008.79" cy="-18" rx="318.443" ry="18"/>
<text text-anchor="middle" x="6008.79" y="-14.3" font-family="Times New Roman,serif" font-size="14.00">.\tucson\core\src\main\java\alice\tuplecentre\core\AbstractTupleCentreOperation.java</text>
</g>
<!-- alice.tuplecentre.api.ITupleCentre&#45;&gt;alice.tuplecentre.core.AbstractTupleCentreOperation -->
<g id="edge4" class="edge"><title>alice.tuplecentre.api.ITupleCentre&#45;&gt;alice.tuplecentre.core.AbstractTupleCentreOperation</title>
<path fill="none" stroke="black" d="M6008.79,-71.6966C6008.79,-63.9827 6008.79,-54.7125 6008.79,-46.1124"/>
<polygon fill="black" stroke="black" points="6012.29,-46.1043 6008.79,-36.1043 6005.29,-46.1044 6012.29,-46.1043"/>
</g>
<!-- alice.tuplecentre.api.ITupleCentreManagement -->
<g id="node11" class="node"><title>alice.tuplecentre.api.ITupleCentreManagement</title>
<ellipse fill="blue" stroke="red" cx="6955.79" cy="-90" rx="178.168" ry="18"/>
<text text-anchor="middle" x="6955.79" y="-86.3" font-family="Times New Roman,serif" font-size="14.00">alice.tuplecentre.api.ITupleCentreManagement</text>
</g>
<!-- alice.tuplecentre.core.AbstractBehaviourSpecification -->
<g id="node20" class="node"><title>alice.tuplecentre.core.AbstractBehaviourSpecification</title>
<ellipse fill="red" stroke="red" cx="6666.79" cy="-18" rx="321.143" ry="18"/>
<text text-anchor="middle" x="6666.79" y="-14.3" font-family="Times New Roman,serif" font-size="14.00">.\tucson\core\src\main\java\alice\tuplecentre\core\AbstractBehaviourSpecification.java</text>
</g>
<!-- alice.tuplecentre.api.ITupleCentreManagement&#45;&gt;alice.tuplecentre.core.AbstractBehaviourSpecification -->
<g id="edge5" class="edge"><title>alice.tuplecentre.api.ITupleCentreManagement&#45;&gt;alice.tuplecentre.core.AbstractBehaviourSpecification</title>
<path fill="none" stroke="black" d="M6890.57,-73.2034C6847.45,-62.7597 6790.69,-49.012 6745.13,-37.9754"/>
<polygon fill="black" stroke="black" points="6745.83,-34.5447 6735.29,-35.5921 6744.18,-41.3479 6745.83,-34.5447"/>
</g>
<!-- alice.tuplecentre.core.Reaction -->
<g id="node21" class="node"><title>alice.tuplecentre.core.Reaction</title>
<ellipse fill="red" stroke="red" cx="7244.79" cy="-18" rx="238.558" ry="18"/>
<text text-anchor="middle" x="7244.79" y="-14.3" font-family="Times New Roman,serif" font-size="14.00">.\tucson\core\src\main\java\alice\tuplecentre\core\Reaction.java</text>
</g>
<!-- alice.tuplecentre.api.ITupleCentreManagement&#45;&gt;alice.tuplecentre.core.Reaction -->
<g id="edge6" class="edge"><title>alice.tuplecentre.api.ITupleCentreManagement&#45;&gt;alice.tuplecentre.core.Reaction</title>
<path fill="none" stroke="black" d="M7021.01,-73.2034C7064.51,-62.6657 7121.9,-48.7645 7167.67,-37.6783"/>
<polygon fill="black" stroke="black" points="7168.66,-41.0417 7177.55,-35.2859 7167.01,-34.2384 7168.66,-41.0417"/>
</g>
<!-- alice.tuplecentre.api.ObservableEventListener -->
<g id="node12" class="node"><title>alice.tuplecentre.api.ObservableEventListener</title>
<ellipse fill="blue" stroke="red" cx="3461.79" cy="-90" rx="174.669" ry="18"/>
<text text-anchor="middle" x="3461.79" y="-86.3" font-family="Times New Roman,serif" font-size="14.00">alice.tuplecentre.api.ObservableEventListener</text>
</g>
<!-- alice.tuplecentre.api.ObservableEventListener&#45;&gt;alice.tuple.Tuple -->
<g id="edge7" class="edge"><title>alice.tuplecentre.api.ObservableEventListener&#45;&gt;alice.tuple.Tuple</title>
<path fill="none" stroke="black" d="M3438.55,-72.055C3425.87,-62.8068 3410.01,-51.2426 3396.33,-41.2733"/>
<polygon fill="black" stroke="black" points="3398.29,-38.3707 3388.15,-35.307 3394.17,-44.0268 3398.29,-38.3707"/>
</g>
<!-- alice.tuple.TupleTemplate -->
<g id="node22" class="node"><title>alice.tuple.TupleTemplate</title>
<ellipse fill="purple" stroke="red" cx="3557.79" cy="-18" rx="103.982" ry="18"/>
<text text-anchor="middle" x="3557.79" y="-14.3" font-family="Times New Roman,serif" font-size="14.00">alice.tuple.TupleTemplate</text>
</g>
<!-- alice.tuplecentre.api.ObservableEventListener&#45;&gt;alice.tuple.TupleTemplate -->
<g id="edge8" class="edge"><title>alice.tuplecentre.api.ObservableEventListener&#45;&gt;alice.tuple.TupleTemplate</title>
<path fill="none" stroke="black" d="M3485.03,-72.055C3497.53,-62.9408 3513.11,-51.5774 3526.65,-41.7077"/>
<polygon fill="black" stroke="black" points="3528.74,-44.5088 3534.76,-35.789 3524.62,-38.8527 3528.74,-44.5088"/>
</g>
<!-- alice.tuplecentre.api.OperationIdentifier -->
<g id="node13" class="node"><title>alice.tuplecentre.api.OperationIdentifier</title>
<ellipse fill="blue" stroke="red" cx="7304.79" cy="-90" rx="152.973" ry="18"/>
<text text-anchor="middle" x="7304.79" y="-86.3" font-family="Times New Roman,serif" font-size="14.00">alice.tuplecentre.api.OperationIdentifier</text>
</g>
<!-- alice.tuplecentre.api.TupleCentreIdentifier -->
<g id="node14" class="node"><title>alice.tuplecentre.api.TupleCentreIdentifier</title>
<ellipse fill="blue" stroke="red" cx="7636.79" cy="-90" rx="161.372" ry="18"/>
<text text-anchor="middle" x="7636.79" y="-86.3" font-family="Times New Roman,serif" font-size="14.00">alice.tuplecentre.api.TupleCentreIdentifier</text>
</g>
<!-- alice.tuplecentre.api.TupleCentreOperation -->
<g id="node15" class="node"><title>alice.tuplecentre.api.TupleCentreOperation</title>
<ellipse fill="blue" stroke="red" cx="4266.79" cy="-90" rx="165.171" ry="18"/>
<text text-anchor="middle" x="4266.79" y="-86.3" font-family="Times New Roman,serif" font-size="14.00">alice.tuplecentre.api.TupleCentreOperation</text>
</g>
<!-- alice.tuplecentre.api.TupleCentreOperation&#45;&gt;alice.tuple.Tuple -->
<g id="edge9" class="edge"><title>alice.tuplecentre.api.TupleCentreOperation&#45;&gt;alice.tuple.Tuple</title>
<path fill="none" stroke="black" d="M4132.79,-79.4391C4097.35,-76.9615 4059.13,-74.3349 4023.79,-72 3766.52,-55.0031 3700.2,-71.2192 3444.79,-36 3438.49,-35.1322 3431.96,-34.0396 3425.46,-32.8288"/>
<polygon fill="black" stroke="black" points="3425.8,-29.3297 3415.31,-30.8441 3424.46,-36.1994 3425.8,-29.3297"/>
</g>
<!-- alice.tuplecentre.api.TupleCentreOperation&#45;&gt;alice.tuplecentre.core.TCCycleResult -->
<g id="edge14" class="edge"><title>alice.tuplecentre.api.TupleCentreOperation&#45;&gt;alice.tuplecentre.core.TCCycleResult</title>
<path fill="none" stroke="black" d="M4196.08,-73.7247C4146.67,-63.0484 4080.42,-48.7364 4028.08,-37.4264"/>
<polygon fill="black" stroke="black" points="4028.65,-33.9696 4018.14,-35.2788 4027.17,-40.8117 4028.65,-33.9696"/>
</g>
<!-- alice.tuplecentre.api.TupleCentreOperation&#45;&gt;alice.tuple.TupleTemplate -->
<g id="edge10" class="edge"><title>alice.tuplecentre.api.TupleCentreOperation&#45;&gt;alice.tuple.TupleTemplate</title>
<path fill="none" stroke="black" d="M4132.81,-79.4192C4011.86,-70.2154 3829.12,-54.9318 3670.79,-36 3661.36,-34.8724 3651.5,-33.5721 3641.71,-32.2031"/>
<polygon fill="black" stroke="black" points="3641.95,-28.7013 3631.55,-30.7559 3640.96,-35.6313 3641.95,-28.7013"/>
</g>
<!-- alice.tuple.logic.LogicTuple -->
<g id="node23" class="node"><title>alice.tuple.logic.LogicTuple</title>
<ellipse fill="purple" stroke="red" cx="4334.79" cy="-18" rx="111.28" ry="18"/>
<text text-anchor="middle" x="4334.79" y="-14.3" font-family="Times New Roman,serif" font-size="14.00">alice.tuple.logic.LogicTuple</text>
</g>
<!-- alice.tuplecentre.api.TupleCentreOperation&#45;&gt;alice.tuple.logic.LogicTuple -->
<g id="edge11" class="edge"><title>alice.tuplecentre.api.TupleCentreOperation&#45;&gt;alice.tuple.logic.LogicTuple</title>
<path fill="none" stroke="black" d="M4283.25,-72.055C4291.56,-63.4984 4301.8,-52.9594 4310.95,-43.5352"/>
<polygon fill="black" stroke="black" points="4313.55,-45.8869 4318.01,-36.2753 4308.53,-41.0094 4313.55,-45.8869"/>
</g>
<!-- alice.tuplecentre.core.OperationCompletionListener -->
<g id="node24" class="node"><title>alice.tuplecentre.core.OperationCompletionListener</title>
<ellipse fill="red" stroke="red" cx="4776.79" cy="-18" rx="313.045" ry="18"/>
<text text-anchor="middle" x="4776.79" y="-14.3" font-family="Times New Roman,serif" font-size="14.00">.\tucson\core\src\main\java\alice\tuplecentre\core\OperationCompletionListener.java</text>
</g>
<!-- alice.tuplecentre.api.TupleCentreOperation&#45;&gt;alice.tuplecentre.core.OperationCompletionListener -->
<g id="edge12" class="edge"><title>alice.tuplecentre.api.TupleCentreOperation&#45;&gt;alice.tuplecentre.core.OperationCompletionListener</title>
<path fill="none" stroke="black" d="M4365.12,-75.5033C4446.78,-64.2947 4563.44,-48.2824 4651.74,-36.1636"/>
<polygon fill="black" stroke="black" points="4652.39,-39.6076 4661.82,-34.7803 4651.43,-32.6727 4652.39,-39.6076"/>
</g>
<!-- alice.tuplecentre.core.TupleCentreOpType -->
<g id="node25" class="node"><title>alice.tuplecentre.core.TupleCentreOpType</title>
<ellipse fill="red" stroke="red" cx="5389.79" cy="-18" rx="282.15" ry="18"/>
<text text-anchor="middle" x="5389.79" y="-14.3" font-family="Times New Roman,serif" font-size="14.00">.\tucson\core\src\main\java\alice\tuplecentre\core\TupleCentreOpType.java</text>
</g>
<!-- alice.tuplecentre.api.TupleCentreOperation&#45;&gt;alice.tuplecentre.core.TupleCentreOpType -->
<g id="edge13" class="edge"><title>alice.tuplecentre.api.TupleCentreOperation&#45;&gt;alice.tuplecentre.core.TupleCentreOpType</title>
<path fill="none" stroke="black" d="M4406.18,-80.3112C4602.1,-68.0987 4960.19,-45.7783 5186.01,-31.7023"/>
<polygon fill="black" stroke="black" points="5186.23,-35.1955 5195.99,-31.0801 5185.79,-28.2091 5186.23,-35.1955"/>
</g>
</g>
</svg>
