<?xml version="1.0" encoding="UTF-8" standalone="no"?>
<!DOCTYPE svg PUBLIC "-//W3C//DTD SVG 1.1//EN"
 "http://www.w3.org/Graphics/SVG/1.1/DTD/svg11.dtd">
<!-- Generated by graphviz version 2.38.0 (20140413.2041)
 -->
<!-- Title: %3 Pages: 1 -->
<svg width="7292pt" height="116pt"
 viewBox="0.00 0.00 7291.82 116.00" xmlns="http://www.w3.org/2000/svg" xmlns:xlink="http://www.w3.org/1999/xlink">
<g id="graph0" class="graph" transform="scale(1 1) rotate(0) translate(4 112)">
<title>%3</title>
<polygon fill="white" stroke="none" points="-4,4 -4,-112 7287.82,-112 7287.82,4 -4,4"/>
<!-- alice.tuplecentre.core.AbstractBehaviourSpecification -->
<g id="node1" class="node"><title>alice.tuplecentre.core.AbstractBehaviourSpecification</title>
<ellipse fill="blue" stroke="red" cx="204.732" cy="-90" rx="204.964" ry="18"/>
<text text-anchor="middle" x="204.732" y="-86.3" font-family="Times New Roman,serif" font-size="14.00">alice.tuplecentre.core.AbstractBehaviourSpecification</text>
</g>
<!-- alice.tuplecentre.core.AbstractEvent -->
<g id="node2" class="node"><title>alice.tuplecentre.core.AbstractEvent</title>
<ellipse fill="blue" stroke="red" cx="4741.73" cy="-90" rx="141.875" ry="18"/>
<text text-anchor="middle" x="4741.73" y="-86.3" font-family="Times New Roman,serif" font-size="14.00">alice.tuplecentre.core.AbstractEvent</text>
</g>
<!-- alice.tuple.Tuple -->
<g id="node13" class="node"><title>alice.tuple.Tuple</title>
<ellipse fill="purple" stroke="red" cx="4261.73" cy="-18" rx="70.3881" ry="18"/>
<text text-anchor="middle" x="4261.73" y="-14.3" font-family="Times New Roman,serif" font-size="14.00">alice.tuple.Tuple</text>
</g>
<!-- alice.tuplecentre.core.AbstractEvent&#45;&gt;alice.tuple.Tuple -->
<g id="edge1" class="edge"><title>alice.tuplecentre.core.AbstractEvent&#45;&gt;alice.tuple.Tuple</title>
<path fill="none" stroke="black" d="M4638.36,-77.6574C4557.18,-68.1899 4441.4,-53.4557 4340.73,-36 4334.89,-34.9866 4328.82,-33.8442 4322.76,-32.6431"/>
<polygon fill="black" stroke="black" points="4323.11,-29.1425 4312.61,-30.5787 4321.71,-36.002 4323.11,-29.1425"/>
</g>
<!-- alice.tuplecentre.api.EmitterIdentifier -->
<g id="node14" class="node"><title>alice.tuplecentre.api.EmitterIdentifier</title>
<ellipse fill="red" stroke="red" cx="4608.73" cy="-18" rx="258.854" ry="18"/>
<text text-anchor="middle" x="4608.73" y="-14.3" font-family="Times New Roman,serif" font-size="14.00">.\tucson\core\src\main\java\alice\tuplecentre\api\EmitterIdentifier.java</text>
</g>
<!-- alice.tuplecentre.core.AbstractEvent&#45;&gt;alice.tuplecentre.api.EmitterIdentifier -->
<g id="edge2" class="edge"><title>alice.tuplecentre.core.AbstractEvent&#45;&gt;alice.tuplecentre.api.EmitterIdentifier</title>
<path fill="none" stroke="black" d="M4710.21,-72.411C4692.18,-62.9176 4669.34,-50.8979 4649.9,-40.6659"/>
<polygon fill="black" stroke="black" points="4651.43,-37.5165 4640.95,-35.9562 4648.17,-43.7109 4651.43,-37.5165"/>
</g>
<!-- alice.tuplecentre.api.TupleCentreIdentifier -->
<g id="node15" class="node"><title>alice.tuplecentre.api.TupleCentreIdentifier</title>
<ellipse fill="red" stroke="red" cx="5163.73" cy="-18" rx="278.351" ry="18"/>
<text text-anchor="middle" x="5163.73" y="-14.3" font-family="Times New Roman,serif" font-size="14.00">.\tucson\core\src\main\java\alice\tuplecentre\api\TupleCentreIdentifier.java</text>
</g>
<!-- alice.tuplecentre.core.AbstractEvent&#45;&gt;alice.tuplecentre.api.TupleCentreIdentifier -->
<g id="edge3" class="edge"><title>alice.tuplecentre.core.AbstractEvent&#45;&gt;alice.tuplecentre.api.TupleCentreIdentifier</title>
<path fill="none" stroke="black" d="M4824.1,-75.3371C4890.76,-64.279 4985.13,-48.6258 5057.48,-36.6246"/>
<polygon fill="black" stroke="black" points="5058.25,-40.0456 5067.54,-34.9563 5057.1,-33.1399 5058.25,-40.0456"/>
</g>
<!-- alice.tuplecentre.respect.api.geolocation.Position -->
<g id="node16" class="node"><title>alice.tuplecentre.respect.api.geolocation.Position</title>
<ellipse fill="red" stroke="red" cx="5763.73" cy="-18" rx="303.546" ry="18"/>
<text text-anchor="middle" x="5763.73" y="-14.3" font-family="Times New Roman,serif" font-size="14.00">.\tucson\core\src\main\java\alice\tuplecentre\respect\api\geolocation\Position.java</text>
</g>
<!-- alice.tuplecentre.core.AbstractEvent&#45;&gt;alice.tuplecentre.respect.api.geolocation.Position -->
<g id="edge4" class="edge"><title>alice.tuplecentre.core.AbstractEvent&#45;&gt;alice.tuplecentre.respect.api.geolocation.Position</title>
<path fill="none" stroke="black" d="M4863.23,-80.6779C5036.04,-68.842 5354.88,-47.0037 5563.08,-32.7434"/>
<polygon fill="black" stroke="black" points="5563.48,-36.2242 5573.22,-32.049 5563,-29.2406 5563.48,-36.2242"/>
</g>
<!-- alice.tuplecentre.core.AbstractOperationId -->
<g id="node3" class="node"><title>alice.tuplecentre.core.AbstractOperationId</title>
<ellipse fill="blue" stroke="red" cx="592.732" cy="-90" rx="165.171" ry="18"/>
<text text-anchor="middle" x="592.732" y="-86.3" font-family="Times New Roman,serif" font-size="14.00">alice.tuplecentre.core.AbstractOperationId</text>
</g>
<!-- alice.tuplecentre.api.OperationIdentifier -->
<g id="node17" class="node"><title>alice.tuplecentre.api.OperationIdentifier</title>
<ellipse fill="red" stroke="red" cx="592.732" cy="-18" rx="269.152" ry="18"/>
<text text-anchor="middle" x="592.732" y="-14.3" font-family="Times New Roman,serif" font-size="14.00">.\tucson\core\src\main\java\alice\tuplecentre\api\OperationIdentifier.java</text>
</g>
<!-- alice.tuplecentre.core.AbstractOperationId&#45;&gt;alice.tuplecentre.api.OperationIdentifier -->
<g id="edge5" class="edge"><title>alice.tuplecentre.core.AbstractOperationId&#45;&gt;alice.tuplecentre.api.OperationIdentifier</title>
<path fill="none" stroke="black" d="M592.732,-71.6966C592.732,-63.9827 592.732,-54.7125 592.732,-46.1124"/>
<polygon fill="black" stroke="black" points="596.232,-46.1043 592.732,-36.1043 589.232,-46.1044 596.232,-46.1043"/>
</g>
<!-- alice.tuplecentre.core.AbstractTupleCentreOperation -->
<g id="node4" class="node"><title>alice.tuplecentre.core.AbstractTupleCentreOperation</title>
<ellipse fill="blue" stroke="red" cx="2073.73" cy="-90" rx="202.264" ry="18"/>
<text text-anchor="middle" x="2073.73" y="-86.3" font-family="Times New Roman,serif" font-size="14.00">alice.tuplecentre.core.AbstractTupleCentreOperation</text>
</g>
<!-- alice.tuplecentre.core.AbstractTupleCentreOperation&#45;&gt;alice.tuple.Tuple -->
<g id="edge6" class="edge"><title>alice.tuplecentre.core.AbstractTupleCentreOperation&#45;&gt;alice.tuple.Tuple</title>
<path fill="none" stroke="black" d="M2275.44,-88.7337C2728.93,-87.3536 3817.79,-79.4644 4182.73,-36 4189.13,-35.2378 4195.78,-34.2018 4202.38,-33.0147"/>
<polygon fill="black" stroke="black" points="4203.5,-36.3627 4212.66,-31.0426 4202.18,-29.4879 4203.5,-36.3627"/>
</g>
<!-- alice.tuplecentre.core.AbstractTupleCentreOperation&#45;&gt;alice.tuplecentre.api.OperationIdentifier -->
<g id="edge11" class="edge"><title>alice.tuplecentre.core.AbstractTupleCentreOperation&#45;&gt;alice.tuplecentre.api.OperationIdentifier</title>
<path fill="none" stroke="black" d="M1892.55,-81.9809C1657.06,-72.6367 1233.08,-55.0592 870.732,-36 844.827,-34.6374 817.572,-33.0994 790.669,-31.5193"/>
<polygon fill="black" stroke="black" points="790.568,-28.0073 780.379,-30.9119 790.155,-34.9951 790.568,-28.0073"/>
</g>
<!-- alice.tuple.TupleTemplate -->
<g id="node18" class="node"><title>alice.tuple.TupleTemplate</title>
<ellipse fill="purple" stroke="red" cx="983.732" cy="-18" rx="103.982" ry="18"/>
<text text-anchor="middle" x="983.732" y="-14.3" font-family="Times New Roman,serif" font-size="14.00">alice.tuple.TupleTemplate</text>
</g>
<!-- alice.tuplecentre.core.AbstractTupleCentreOperation&#45;&gt;alice.tuple.TupleTemplate -->
<g id="edge7" class="edge"><title>alice.tuplecentre.core.AbstractTupleCentreOperation&#45;&gt;alice.tuple.TupleTemplate</title>
<path fill="none" stroke="black" d="M1882.82,-84.0134C1685.58,-77.6033 1369.01,-63.8032 1096.73,-36 1086.89,-34.9949 1076.59,-33.7361 1066.39,-32.3608"/>
<polygon fill="black" stroke="black" points="1066.63,-28.8604 1056.24,-30.9516 1065.67,-35.7939 1066.63,-28.8604"/>
</g>
<!-- alice.tuple.logic.LogicTuple -->
<g id="node19" class="node"><title>alice.tuple.logic.LogicTuple</title>
<ellipse fill="purple" stroke="red" cx="1216.73" cy="-18" rx="111.28" ry="18"/>
<text text-anchor="middle" x="1216.73" y="-14.3" font-family="Times New Roman,serif" font-size="14.00">alice.tuple.logic.LogicTuple</text>
</g>
<!-- alice.tuplecentre.core.AbstractTupleCentreOperation&#45;&gt;alice.tuple.logic.LogicTuple -->
<g id="edge8" class="edge"><title>alice.tuplecentre.core.AbstractTupleCentreOperation&#45;&gt;alice.tuple.logic.LogicTuple</title>
<path fill="none" stroke="black" d="M1904.39,-80.1475C1754.82,-71.5361 1530.94,-56.7145 1336.73,-36 1326.43,-34.9007 1315.64,-33.5951 1304.95,-32.2032"/>
<polygon fill="black" stroke="black" points="1305.11,-28.6946 1294.74,-30.8463 1304.19,-35.6336 1305.11,-28.6946"/>
</g>
<!-- alice.tuple.logic.exceptions.InvalidLogicTupleException -->
<g id="node20" class="node"><title>alice.tuple.logic.exceptions.InvalidLogicTupleException</title>
<ellipse fill="purple" stroke="red" cx="1559.73" cy="-18" rx="213.662" ry="18"/>
<text text-anchor="middle" x="1559.73" y="-14.3" font-family="Times New Roman,serif" font-size="14.00">alice.tuple.logic.exceptions.InvalidLogicTupleException</text>
</g>
<!-- alice.tuplecentre.core.AbstractTupleCentreOperation&#45;&gt;alice.tuple.logic.exceptions.InvalidLogicTupleException -->
<g id="edge9" class="edge"><title>alice.tuplecentre.core.AbstractTupleCentreOperation&#45;&gt;alice.tuple.logic.exceptions.InvalidLogicTupleException</title>
<path fill="none" stroke="black" d="M1968.17,-74.6232C1883.44,-63.0847 1764.58,-46.8977 1676.92,-34.9594"/>
<polygon fill="black" stroke="black" points="1677.31,-31.48 1666.93,-33.5985 1676.36,-38.416 1677.31,-31.48"/>
</g>
<!-- alice.tuplecentre.api.ITCCycleResult -->
<g id="node21" class="node"><title>alice.tuplecentre.api.ITCCycleResult</title>
<ellipse fill="red" stroke="red" cx="3913.73" cy="-18" rx="259.954" ry="18"/>
<text text-anchor="middle" x="3913.73" y="-14.3" font-family="Times New Roman,serif" font-size="14.00">.\tucson\core\src\main\java\alice\tuplecentre\api\ITCCycleResult.java</text>
</g>
<!-- alice.tuplecentre.core.AbstractTupleCentreOperation&#45;&gt;alice.tuplecentre.api.ITCCycleResult -->
<g id="edge10" class="edge"><title>alice.tuplecentre.core.AbstractTupleCentreOperation&#45;&gt;alice.tuplecentre.api.ITCCycleResult</title>
<path fill="none" stroke="black" d="M2265.77,-84.3396C2561.89,-76.7425 3147.79,-60.0801 3644.73,-36 3670.43,-34.7549 3697.49,-33.2605 3724.15,-31.6814"/>
<polygon fill="black" stroke="black" points="3724.58,-35.1626 3734.35,-31.0724 3724.16,-28.175 3724.58,-35.1626"/>
</g>
<!-- alice.tuplecentre.api.TupleCentreOperation -->
<g id="node22" class="node"><title>alice.tuplecentre.api.TupleCentreOperation</title>
<ellipse fill="red" stroke="red" cx="2073.73" cy="-18" rx="282.15" ry="18"/>
<text text-anchor="middle" x="2073.73" y="-14.3" font-family="Times New Roman,serif" font-size="14.00">.\tucson\core\src\main\java\alice\tuplecentre\api\TupleCentreOperation.java</text>
</g>
<!-- alice.tuplecentre.core.AbstractTupleCentreOperation&#45;&gt;alice.tuplecentre.api.TupleCentreOperation -->
<g id="edge12" class="edge"><title>alice.tuplecentre.core.AbstractTupleCentreOperation&#45;&gt;alice.tuplecentre.api.TupleCentreOperation</title>
<path fill="none" stroke="black" d="M2073.73,-71.6966C2073.73,-63.9827 2073.73,-54.7125 2073.73,-46.1124"/>
<polygon fill="black" stroke="black" points="2077.23,-46.1043 2073.73,-36.1043 2070.23,-46.1044 2077.23,-46.1043"/>
</g>
<!-- alice.tuplecentre.api.exceptions.OperationTimeOutException -->
<g id="node23" class="node"><title>alice.tuplecentre.api.exceptions.OperationTimeOutException</title>
<ellipse fill="red" stroke="red" cx="2720.73" cy="-18" rx="347.138" ry="18"/>
<text text-anchor="middle" x="2720.73" y="-14.3" font-family="Times New Roman,serif" font-size="14.00">.\tucson\core\src\main\java\alice\tuplecentre\api\exceptions\OperationTimeOutException.java</text>
</g>
<!-- alice.tuplecentre.core.AbstractTupleCentreOperation&#45;&gt;alice.tuplecentre.api.exceptions.OperationTimeOutException -->
<g id="edge13" class="edge"><title>alice.tuplecentre.core.AbstractTupleCentreOperation&#45;&gt;alice.tuplecentre.api.exceptions.OperationTimeOutException</title>
<path fill="none" stroke="black" d="M2196.95,-75.6688C2302.48,-64.2519 2454.87,-47.7635 2568.1,-35.5131"/>
<polygon fill="black" stroke="black" points="2568.68,-38.9712 2578.25,-34.4158 2567.93,-32.0118 2568.68,-38.9712"/>
</g>
<!-- alice.tuplecentre.tucson.api.TucsonOpId -->
<g id="node24" class="node"><title>alice.tuplecentre.tucson.api.TucsonOpId</title>
<ellipse fill="red" stroke="red" cx="3360.73" cy="-18" rx="274.851" ry="18"/>
<text text-anchor="middle" x="3360.73" y="-14.3" font-family="Times New Roman,serif" font-size="14.00">.\tucson\core\src\main\java\alice\tuplecentre\tucson\api\TucsonOpId.java</text>
</g>
<!-- alice.tuplecentre.core.AbstractTupleCentreOperation&#45;&gt;alice.tuplecentre.tucson.api.TucsonOpId -->
<g id="edge14" class="edge"><title>alice.tuplecentre.core.AbstractTupleCentreOperation&#45;&gt;alice.tuplecentre.tucson.api.TucsonOpId</title>
<path fill="none" stroke="black" d="M2244.57,-80.3373C2444.2,-70.1299 2784.46,-52.4692 3076.73,-36 3102.53,-34.5462 3129.65,-32.9766 3156.46,-31.3992"/>
<polygon fill="black" stroke="black" points="3156.95,-34.877 3166.72,-30.7946 3156.54,-27.8891 3156.95,-34.877"/>
</g>
<!-- alice.tuplecentre.core.InputEvent -->
<g id="node5" class="node"><title>alice.tuplecentre.core.InputEvent</title>
<ellipse fill="blue" stroke="red" cx="5163.73" cy="-90" rx="129.177" ry="18"/>
<text text-anchor="middle" x="5163.73" y="-86.3" font-family="Times New Roman,serif" font-size="14.00">alice.tuplecentre.core.InputEvent</text>
</g>
<!-- alice.tuplecentre.core.InputEvent&#45;&gt;alice.tuplecentre.api.EmitterIdentifier -->
<g id="edge15" class="edge"><title>alice.tuplecentre.core.InputEvent&#45;&gt;alice.tuplecentre.api.EmitterIdentifier</title>
<path fill="none" stroke="black" d="M5071.46,-77.3623C4980.26,-65.8589 4839.92,-48.1589 4737.7,-35.2668"/>
<polygon fill="black" stroke="black" points="4737.98,-31.7742 4727.62,-33.9952 4737.11,-38.7192 4737.98,-31.7742"/>
</g>
<!-- alice.tuplecentre.core.InputEvent&#45;&gt;alice.tuplecentre.api.TupleCentreIdentifier -->
<g id="edge16" class="edge"><title>alice.tuplecentre.core.InputEvent&#45;&gt;alice.tuplecentre.api.TupleCentreIdentifier</title>
<path fill="none" stroke="black" d="M5163.73,-71.6966C5163.73,-63.9827 5163.73,-54.7125 5163.73,-46.1124"/>
<polygon fill="black" stroke="black" points="5167.23,-46.1043 5163.73,-36.1043 5160.23,-46.1044 5167.23,-46.1043"/>
</g>
<!-- alice.tuplecentre.core.InputEvent&#45;&gt;alice.tuplecentre.respect.api.geolocation.Position -->
<g id="edge17" class="edge"><title>alice.tuplecentre.core.InputEvent&#45;&gt;alice.tuplecentre.respect.api.geolocation.Position</title>
<path fill="none" stroke="black" d="M5256.88,-77.4177C5271.87,-75.5842 5287.23,-73.725 5301.73,-72 5407.88,-59.3729 5527.82,-45.6291 5618.89,-35.3018"/>
<polygon fill="black" stroke="black" points="5619.47,-38.7591 5629.01,-34.1551 5618.68,-31.8037 5619.47,-38.7591"/>
</g>
<!-- alice.tuplecentre.core.OperationCompletionListener -->
<g id="node6" class="node"><title>alice.tuplecentre.core.OperationCompletionListener</title>
<ellipse fill="blue" stroke="red" cx="5507.73" cy="-90" rx="196.865" ry="18"/>
<text text-anchor="middle" x="5507.73" y="-86.3" font-family="Times New Roman,serif" font-size="14.00">alice.tuplecentre.core.OperationCompletionListener</text>
</g>
<!-- alice.tuplecentre.core.OutputEvent -->
<g id="node7" class="node"><title>alice.tuplecentre.core.OutputEvent</title>
<ellipse fill="blue" stroke="red" cx="5858.73" cy="-90" rx="135.676" ry="18"/>
<text text-anchor="middle" x="5858.73" y="-86.3" font-family="Times New Roman,serif" font-size="14.00">alice.tuplecentre.core.OutputEvent</text>
</g>
<!-- alice.tuplecentre.core.OutputEventListener -->
<g id="node8" class="node"><title>alice.tuplecentre.core.OutputEventListener</title>
<ellipse fill="blue" stroke="red" cx="6176.73" cy="-90" rx="164.371" ry="18"/>
<text text-anchor="middle" x="6176.73" y="-86.3" font-family="Times New Roman,serif" font-size="14.00">alice.tuplecentre.core.OutputEventListener</text>
</g>
<!-- alice.tuplecentre.core.Reaction -->
<g id="node9" class="node"><title>alice.tuplecentre.core.Reaction</title>
<ellipse fill="blue" stroke="red" cx="6481.73" cy="-90" rx="122.379" ry="18"/>
<text text-anchor="middle" x="6481.73" y="-86.3" font-family="Times New Roman,serif" font-size="14.00">alice.tuplecentre.core.Reaction</text>
</g>
<!-- alice.tuplecentre.core.TCCycleResult -->
<g id="node10" class="node"><title>alice.tuplecentre.core.TCCycleResult</title>
<ellipse fill="blue" stroke="red" cx="4087.73" cy="-90" rx="145.674" ry="18"/>
<text text-anchor="middle" x="4087.73" y="-86.3" font-family="Times New Roman,serif" font-size="14.00">alice.tuplecentre.core.TCCycleResult</text>
</g>
<!-- alice.tuplecentre.core.TCCycleResult&#45;&gt;alice.tuple.Tuple -->
<g id="edge18" class="edge"><title>alice.tuplecentre.core.TCCycleResult&#45;&gt;alice.tuple.Tuple</title>
<path fill="none" stroke="black" d="M4128.53,-72.5881C4154.85,-61.9968 4189.13,-48.2062 4216.32,-37.2673"/>
<polygon fill="black" stroke="black" points="4217.65,-40.5064 4225.62,-33.527 4215.04,-34.0122 4217.65,-40.5064"/>
</g>
<!-- alice.tuplecentre.core.TCCycleResult&#45;&gt;alice.tuplecentre.api.ITCCycleResult -->
<g id="edge19" class="edge"><title>alice.tuplecentre.core.TCCycleResult&#45;&gt;alice.tuplecentre.api.ITCCycleResult</title>
<path fill="none" stroke="black" d="M4046.94,-72.5881C4022.42,-62.7268 3991.02,-50.0922 3964.86,-39.568"/>
<polygon fill="black" stroke="black" points="3966.06,-36.2805 3955.48,-35.7953 3963.45,-42.7747 3966.06,-36.2805"/>
</g>
<!-- alice.tuplecentre.core.TriggeredReaction -->
<g id="node11" class="node"><title>alice.tuplecentre.core.TriggeredReaction</title>
<ellipse fill="blue" stroke="red" cx="6778.73" cy="-90" rx="157.072" ry="18"/>
<text text-anchor="middle" x="6778.73" y="-86.3" font-family="Times New Roman,serif" font-size="14.00">alice.tuplecentre.core.TriggeredReaction</text>
</g>
<!-- alice.tuplecentre.core.TupleCentreOpType -->
<g id="node12" class="node"><title>alice.tuplecentre.core.TupleCentreOpType</title>
<ellipse fill="blue" stroke="red" cx="7118.73" cy="-90" rx="165.171" ry="18"/>
<text text-anchor="middle" x="7118.73" y="-86.3" font-family="Times New Roman,serif" font-size="14.00">alice.tuplecentre.core.TupleCentreOpType</text>
</g>
</g>
</svg>
