<?xml version="1.0" encoding="UTF-8" standalone="no"?>
<!DOCTYPE svg PUBLIC "-//W3C//DTD SVG 1.1//EN"
 "http://www.w3.org/Graphics/SVG/1.1/DTD/svg11.dtd">
<!-- Generated by graphviz version 2.38.0 (20140413.2041)
 -->
<!-- Title: %3 Pages: 1 -->
<svg width="8981pt" height="116pt"
 viewBox="0.00 0.00 8981.18 116.00" xmlns="http://www.w3.org/2000/svg" xmlns:xlink="http://www.w3.org/1999/xlink">
<g id="graph0" class="graph" transform="scale(1 1) rotate(0) translate(4 112)">
<title>%3</title>
<polygon fill="white" stroke="none" points="-4,4 -4,-112 8977.18,-112 8977.18,4 -4,4"/>
<!-- alice.tuple.java.api.JArg -->
<g id="node1" class="node"><title>alice.tuple.java.api.JArg</title>
<ellipse fill="blue" stroke="red" cx="96.1915" cy="-90" rx="96.3833" ry="18"/>
<text text-anchor="middle" x="96.1915" y="-86.3" font-family="Times New Roman,serif" font-size="14.00">alice.tuple.java.api.JArg</text>
</g>
<!-- alice.tuple.java.api.JArgType -->
<g id="node2" class="node"><title>alice.tuple.java.api.JArgType</title>
<ellipse fill="blue" stroke="red" cx="325.191" cy="-90" rx="115.08" ry="18"/>
<text text-anchor="middle" x="325.191" y="-86.3" font-family="Times New Roman,serif" font-size="14.00">alice.tuple.java.api.JArgType</text>
</g>
<!-- alice.tuple.java.api.JTuple -->
<g id="node3" class="node"><title>alice.tuple.java.api.JTuple</title>
<ellipse fill="blue" stroke="red" cx="561.191" cy="-90" rx="103.182" ry="18"/>
<text text-anchor="middle" x="561.191" y="-86.3" font-family="Times New Roman,serif" font-size="14.00">alice.tuple.java.api.JTuple</text>
</g>
<!-- alice.tuplecentre.api.exceptions.InvalidTupleException -->
<g id="node30" class="node"><title>alice.tuplecentre.api.exceptions.InvalidTupleException</title>
<ellipse fill="red" stroke="red" cx="1111.19" cy="-18" rx="324.143" ry="18"/>
<text text-anchor="middle" x="1111.19" y="-14.3" font-family="Times New Roman,serif" font-size="14.00">.\tucson\core\src\main\java\alice\tuplecentre\api\exceptions\InvalidTupleException.java</text>
</g>
<!-- alice.tuple.java.api.JTuple&#45;&gt;alice.tuplecentre.api.exceptions.InvalidTupleException -->
<g id="edge1" class="edge"><title>alice.tuple.java.api.JTuple&#45;&gt;alice.tuplecentre.api.exceptions.InvalidTupleException</title>
<path fill="none" stroke="black" d="M635.248,-77.4365C647.898,-75.5538 660.915,-73.6741 673.191,-72 770.469,-58.735 880.135,-45.4668 965.399,-35.524"/>
<polygon fill="black" stroke="black" points="965.882,-38.9916 975.41,-34.3589 965.072,-32.0386 965.882,-38.9916"/>
</g>
<!-- alice.tuple.java.api.JTupleTemplate -->
<g id="node4" class="node"><title>alice.tuple.java.api.JTupleTemplate</title>
<ellipse fill="blue" stroke="red" cx="819.191" cy="-90" rx="137.276" ry="18"/>
<text text-anchor="middle" x="819.191" y="-86.3" font-family="Times New Roman,serif" font-size="14.00">alice.tuple.java.api.JTupleTemplate</text>
</g>
<!-- alice.tuple.java.api.JTupleTemplate&#45;&gt;alice.tuplecentre.api.exceptions.InvalidTupleException -->
<g id="edge2" class="edge"><title>alice.tuple.java.api.JTupleTemplate&#45;&gt;alice.tuplecentre.api.exceptions.InvalidTupleException</title>
<path fill="none" stroke="black" d="M881.833,-73.9832C925.717,-63.4632 984.711,-49.3208 1031.88,-38.0135"/>
<polygon fill="black" stroke="black" points="1032.85,-41.3809 1041.75,-35.6461 1031.21,-34.5738 1032.85,-41.3809"/>
</g>
<!-- alice.tuple.java.api.JVal -->
<g id="node5" class="node"><title>alice.tuple.java.api.JVal</title>
<ellipse fill="blue" stroke="red" cx="4032.19" cy="-90" rx="94.7833" ry="18"/>
<text text-anchor="middle" x="4032.19" y="-86.3" font-family="Times New Roman,serif" font-size="14.00">alice.tuple.java.api.JVal</text>
</g>
<!-- alice.tuple.java.api.JVar -->
<g id="node6" class="node"><title>alice.tuple.java.api.JVar</title>
<ellipse fill="blue" stroke="red" cx="4240.19" cy="-90" rx="95.5831" ry="18"/>
<text text-anchor="middle" x="4240.19" y="-86.3" font-family="Times New Roman,serif" font-size="14.00">alice.tuple.java.api.JVar</text>
</g>
<!-- alice.tuple.java.exceptions.BindingNullJValException -->
<g id="node7" class="node"><title>alice.tuple.java.exceptions.BindingNullJValException</title>
<ellipse fill="blue" stroke="red" cx="4556.19" cy="-90" rx="202.264" ry="18"/>
<text text-anchor="middle" x="4556.19" y="-86.3" font-family="Times New Roman,serif" font-size="14.00">alice.tuple.java.exceptions.BindingNullJValException</text>
</g>
<!-- alice.tuple.java.exceptions.InvalidJValException -->
<g id="node8" class="node"><title>alice.tuple.java.exceptions.InvalidJValException</title>
<ellipse fill="blue" stroke="red" cx="4960.19" cy="-90" rx="183.867" ry="18"/>
<text text-anchor="middle" x="4960.19" y="-86.3" font-family="Times New Roman,serif" font-size="14.00">alice.tuple.java.exceptions.InvalidJValException</text>
</g>
<!-- alice.tuple.java.exceptions.InvalidJVarException -->
<g id="node9" class="node"><title>alice.tuple.java.exceptions.InvalidJVarException</title>
<ellipse fill="blue" stroke="red" cx="5347.19" cy="-90" rx="184.667" ry="18"/>
<text text-anchor="middle" x="5347.19" y="-86.3" font-family="Times New Roman,serif" font-size="14.00">alice.tuple.java.exceptions.InvalidJVarException</text>
</g>
<!-- alice.tuple.java.impl.JTupleDefault -->
<g id="node10" class="node"><title>alice.tuple.java.impl.JTupleDefault</title>
<ellipse fill="blue" stroke="red" cx="1399.19" cy="-90" rx="133.776" ry="18"/>
<text text-anchor="middle" x="1399.19" y="-86.3" font-family="Times New Roman,serif" font-size="14.00">alice.tuple.java.impl.JTupleDefault</text>
</g>
<!-- alice.tuple.java.impl.JTupleDefault&#45;&gt;alice.tuplecentre.api.exceptions.InvalidTupleException -->
<g id="edge4" class="edge"><title>alice.tuple.java.impl.JTupleDefault&#45;&gt;alice.tuplecentre.api.exceptions.InvalidTupleException</title>
<path fill="none" stroke="black" d="M1337.41,-73.9832C1294.13,-63.4632 1235.94,-49.3208 1189.42,-38.0135"/>
<polygon fill="black" stroke="black" points="1190.22,-34.6069 1179.68,-35.6461 1188.57,-41.4089 1190.22,-34.6069"/>
</g>
<!-- alice.tuplecentre.api.exceptions.InvalidOperationException -->
<g id="node31" class="node"><title>alice.tuplecentre.api.exceptions.InvalidOperationException</title>
<ellipse fill="red" stroke="red" cx="1816.19" cy="-18" rx="339.04" ry="18"/>
<text text-anchor="middle" x="1816.19" y="-14.3" font-family="Times New Roman,serif" font-size="14.00">.\tucson\core\src\main\java\alice\tuplecentre\api\exceptions\InvalidOperationException.java</text>
</g>
<!-- alice.tuple.java.impl.JTupleDefault&#45;&gt;alice.tuplecentre.api.exceptions.InvalidOperationException -->
<g id="edge3" class="edge"><title>alice.tuple.java.impl.JTupleDefault&#45;&gt;alice.tuplecentre.api.exceptions.InvalidOperationException</title>
<path fill="none" stroke="black" d="M1479.59,-75.5033C1544.92,-64.5374 1637.63,-48.9736 1709.22,-36.9563"/>
<polygon fill="black" stroke="black" points="1709.9,-40.3922 1719.18,-35.2849 1708.74,-33.4888 1709.9,-40.3922"/>
</g>
<!-- alice.tuple.java.impl.JTuplesEngine -->
<g id="node11" class="node"><title>alice.tuple.java.impl.JTuplesEngine</title>
<ellipse fill="blue" stroke="red" cx="1111.19" cy="-90" rx="136.476" ry="18"/>
<text text-anchor="middle" x="1111.19" y="-86.3" font-family="Times New Roman,serif" font-size="14.00">alice.tuple.java.impl.JTuplesEngine</text>
</g>
<!-- alice.tuple.java.impl.JTuplesEngine&#45;&gt;alice.tuplecentre.api.exceptions.InvalidTupleException -->
<g id="edge5" class="edge"><title>alice.tuple.java.impl.JTuplesEngine&#45;&gt;alice.tuplecentre.api.exceptions.InvalidTupleException</title>
<path fill="none" stroke="black" d="M1111.19,-71.6966C1111.19,-63.9827 1111.19,-54.7125 1111.19,-46.1124"/>
<polygon fill="black" stroke="black" points="1114.69,-46.1043 1111.19,-36.1043 1107.69,-46.1044 1114.69,-46.1043"/>
</g>
<!-- alice.tuple.java.impl.JTupleTemplateDefault -->
<g id="node12" class="node"><title>alice.tuple.java.impl.JTupleTemplateDefault</title>
<ellipse fill="blue" stroke="red" cx="1719.19" cy="-90" rx="167.87" ry="18"/>
<text text-anchor="middle" x="1719.19" y="-86.3" font-family="Times New Roman,serif" font-size="14.00">alice.tuple.java.impl.JTupleTemplateDefault</text>
</g>
<!-- alice.tuple.java.impl.JTupleTemplateDefault&#45;&gt;alice.tuplecentre.api.exceptions.InvalidTupleException -->
<g id="edge7" class="edge"><title>alice.tuple.java.impl.JTupleTemplateDefault&#45;&gt;alice.tuplecentre.api.exceptions.InvalidTupleException</title>
<path fill="none" stroke="black" d="M1609.44,-76.3641C1510.26,-64.9458 1363.63,-48.0632 1255.09,-35.5671"/>
<polygon fill="black" stroke="black" points="1255.37,-32.0767 1245.04,-34.4099 1254.57,-39.0308 1255.37,-32.0767"/>
</g>
<!-- alice.tuple.java.impl.JTupleTemplateDefault&#45;&gt;alice.tuplecentre.api.exceptions.InvalidOperationException -->
<g id="edge6" class="edge"><title>alice.tuple.java.impl.JTupleTemplateDefault&#45;&gt;alice.tuplecentre.api.exceptions.InvalidOperationException</title>
<path fill="none" stroke="black" d="M1742.67,-72.055C1755.21,-63.0078 1770.82,-51.7443 1784.42,-41.9257"/>
<polygon fill="black" stroke="black" points="1786.53,-44.7217 1792.59,-36.0316 1782.43,-39.0454 1786.53,-44.7217"/>
</g>
<!-- alice.tuple.java.impl.JValDefault -->
<g id="node13" class="node"><title>alice.tuple.java.impl.JValDefault</title>
<ellipse fill="blue" stroke="red" cx="2030.19" cy="-90" rx="125.378" ry="18"/>
<text text-anchor="middle" x="2030.19" y="-86.3" font-family="Times New Roman,serif" font-size="14.00">alice.tuple.java.impl.JValDefault</text>
</g>
<!-- alice.tuple.java.impl.JValDefault&#45;&gt;alice.tuplecentre.api.exceptions.InvalidOperationException -->
<g id="edge8" class="edge"><title>alice.tuple.java.impl.JValDefault&#45;&gt;alice.tuplecentre.api.exceptions.InvalidOperationException</title>
<path fill="none" stroke="black" d="M1982.17,-73.2906C1951.21,-63.1648 1910.68,-49.9063 1877.42,-39.0266"/>
<polygon fill="black" stroke="black" points="1878.39,-35.662 1867.79,-35.8795 1876.21,-42.3151 1878.39,-35.662"/>
</g>
<!-- alice.tuple.java.impl.JVarDefault -->
<g id="node14" class="node"><title>alice.tuple.java.impl.JVarDefault</title>
<ellipse fill="blue" stroke="red" cx="5676.19" cy="-90" rx="126.178" ry="18"/>
<text text-anchor="middle" x="5676.19" y="-86.3" font-family="Times New Roman,serif" font-size="14.00">alice.tuple.java.impl.JVarDefault</text>
</g>
<!-- alice.tuple.logic.exceptions.InvalidLogicTupleException -->
<g id="node15" class="node"><title>alice.tuple.logic.exceptions.InvalidLogicTupleException</title>
<ellipse fill="blue" stroke="red" cx="6034.19" cy="-90" rx="213.662" ry="18"/>
<text text-anchor="middle" x="6034.19" y="-86.3" font-family="Times New Roman,serif" font-size="14.00">alice.tuple.logic.exceptions.InvalidLogicTupleException</text>
</g>
<!-- alice.tuple.logic.exceptions.InvalidLogicTupleOperationException -->
<g id="node16" class="node"><title>alice.tuple.logic.exceptions.InvalidLogicTupleOperationException</title>
<ellipse fill="blue" stroke="red" cx="6515.19" cy="-90" rx="249.656" ry="18"/>
<text text-anchor="middle" x="6515.19" y="-86.3" font-family="Times New Roman,serif" font-size="14.00">alice.tuple.logic.exceptions.InvalidLogicTupleOperationException</text>
</g>
<!-- alice.tuple.logic.exceptions.InvalidTupleArgumentException -->
<g id="node17" class="node"><title>alice.tuple.logic.exceptions.InvalidTupleArgumentException</title>
<ellipse fill="blue" stroke="red" cx="7011.19" cy="-90" rx="228.26" ry="18"/>
<text text-anchor="middle" x="7011.19" y="-86.3" font-family="Times New Roman,serif" font-size="14.00">alice.tuple.logic.exceptions.InvalidTupleArgumentException</text>
</g>
<!-- alice.tuple.logic.exceptions.InvalidVarNameException -->
<g id="node18" class="node"><title>alice.tuple.logic.exceptions.InvalidVarNameException</title>
<ellipse fill="blue" stroke="red" cx="7463.19" cy="-90" rx="206.063" ry="18"/>
<text text-anchor="middle" x="7463.19" y="-86.3" font-family="Times New Roman,serif" font-size="14.00">alice.tuple.logic.exceptions.InvalidVarNameException</text>
</g>
<!-- alice.tuple.logic.exceptions.LogicTupleException -->
<g id="node19" class="node"><title>alice.tuple.logic.exceptions.LogicTupleException</title>
<ellipse fill="blue" stroke="red" cx="7876.19" cy="-90" rx="189.267" ry="18"/>
<text text-anchor="middle" x="7876.19" y="-86.3" font-family="Times New Roman,serif" font-size="14.00">alice.tuple.logic.exceptions.LogicTupleException</text>
</g>
<!-- alice.tuple.logic.LogicMatchingEngine -->
<g id="node20" class="node"><title>alice.tuple.logic.LogicMatchingEngine</title>
<ellipse fill="blue" stroke="red" cx="2935.19" cy="-90" rx="148.374" ry="18"/>
<text text-anchor="middle" x="2935.19" y="-86.3" font-family="Times New Roman,serif" font-size="14.00">alice.tuple.logic.LogicMatchingEngine</text>
</g>
<!-- alice.tuprolog.Prolog -->
<g id="node32" class="node"><title>alice.tuprolog.Prolog</title>
<ellipse fill="purple" stroke="red" cx="3170.19" cy="-18" rx="87.1846" ry="18"/>
<text text-anchor="middle" x="3170.19" y="-14.3" font-family="Times New Roman,serif" font-size="14.00">alice.tuprolog.Prolog</text>
</g>
<!-- alice.tuple.logic.LogicMatchingEngine&#45;&gt;alice.tuprolog.Prolog -->
<g id="edge9" class="edge"><title>alice.tuple.logic.LogicMatchingEngine&#45;&gt;alice.tuprolog.Prolog</title>
<path fill="none" stroke="black" d="M2988.52,-73.1159C3025.56,-62.0813 3074.88,-47.39 3112.79,-36.0993"/>
<polygon fill="black" stroke="black" points="3114.07,-39.3681 3122.66,-33.159 3112.07,-32.6594 3114.07,-39.3681"/>
</g>
<!-- alice.tuprolog.Term -->
<g id="node33" class="node"><title>alice.tuprolog.Term</title>
<ellipse fill="purple" stroke="red" cx="2935.19" cy="-18" rx="81.7856" ry="18"/>
<text text-anchor="middle" x="2935.19" y="-14.3" font-family="Times New Roman,serif" font-size="14.00">alice.tuprolog.Term</text>
</g>
<!-- alice.tuple.logic.LogicMatchingEngine&#45;&gt;alice.tuprolog.Term -->
<g id="edge10" class="edge"><title>alice.tuple.logic.LogicMatchingEngine&#45;&gt;alice.tuprolog.Term</title>
<path fill="none" stroke="black" d="M2935.19,-71.6966C2935.19,-63.9827 2935.19,-54.7125 2935.19,-46.1124"/>
<polygon fill="black" stroke="black" points="2938.69,-46.1043 2935.19,-36.1043 2931.69,-46.1044 2938.69,-46.1043"/>
</g>
<!-- alice.tuple.logic.LogicTuple -->
<g id="node21" class="node"><title>alice.tuple.logic.LogicTuple</title>
<ellipse fill="blue" stroke="red" cx="3212.19" cy="-90" rx="111.28" ry="18"/>
<text text-anchor="middle" x="3212.19" y="-86.3" font-family="Times New Roman,serif" font-size="14.00">alice.tuple.logic.LogicTuple</text>
</g>
<!-- alice.tuple.logic.LogicTuple&#45;&gt;alice.tuprolog.Term -->
<g id="edge12" class="edge"><title>alice.tuple.logic.LogicTuple&#45;&gt;alice.tuprolog.Term</title>
<path fill="none" stroke="black" d="M3154.8,-74.496C3108.64,-62.8314 3043.92,-46.4773 2996.7,-34.5448"/>
<polygon fill="black" stroke="black" points="2997.46,-31.1258 2986.91,-32.069 2995.74,-37.9124 2997.46,-31.1258"/>
</g>
<!-- alice.tuprolog.InvalidTermException -->
<g id="node34" class="node"><title>alice.tuprolog.InvalidTermException</title>
<ellipse fill="purple" stroke="red" cx="3442.19" cy="-18" rx="142.975" ry="18"/>
<text text-anchor="middle" x="3442.19" y="-14.3" font-family="Times New Roman,serif" font-size="14.00">alice.tuprolog.InvalidTermException</text>
</g>
<!-- alice.tuple.logic.LogicTuple&#45;&gt;alice.tuprolog.InvalidTermException -->
<g id="edge11" class="edge"><title>alice.tuple.logic.LogicTuple&#45;&gt;alice.tuprolog.InvalidTermException</title>
<path fill="none" stroke="black" d="M3262.1,-73.811C3296.78,-63.2543 3343.25,-49.1123 3380.3,-37.8375"/>
<polygon fill="black" stroke="black" points="3381.44,-41.1482 3389.99,-34.8882 3379.4,-34.4515 3381.44,-41.1482"/>
</g>
<!-- alice.tuple.logic.LogicTupleDefault -->
<g id="node22" class="node"><title>alice.tuple.logic.LogicTupleDefault</title>
<ellipse fill="blue" stroke="red" cx="2632.19" cy="-90" rx="137.276" ry="18"/>
<text text-anchor="middle" x="2632.19" y="-86.3" font-family="Times New Roman,serif" font-size="14.00">alice.tuple.logic.LogicTupleDefault</text>
</g>
<!-- alice.tuple.logic.LogicTupleDefault&#45;&gt;alice.tuprolog.Term -->
<g id="edge13" class="edge"><title>alice.tuple.logic.LogicTupleDefault&#45;&gt;alice.tuprolog.Term</title>
<path fill="none" stroke="black" d="M2696.82,-74.0691C2748.15,-62.2115 2819.57,-45.7121 2870.82,-33.8703"/>
<polygon fill="black" stroke="black" points="2871.84,-37.228 2880.79,-31.5668 2870.26,-30.4077 2871.84,-37.228"/>
</g>
<!-- alice.tuple.logic.LogicTupleOpManager -->
<g id="node23" class="node"><title>alice.tuple.logic.LogicTupleOpManager</title>
<ellipse fill="blue" stroke="red" cx="3765.19" cy="-90" rx="154.073" ry="18"/>
<text text-anchor="middle" x="3765.19" y="-86.3" font-family="Times New Roman,serif" font-size="14.00">alice.tuple.logic.LogicTupleOpManager</text>
</g>
<!-- alice.tuple.logic.LogicTupleOpManager&#45;&gt;alice.tuprolog.Prolog -->
<g id="edge16" class="edge"><title>alice.tuple.logic.LogicTupleOpManager&#45;&gt;alice.tuprolog.Prolog</title>
<path fill="none" stroke="black" d="M3656.48,-77.2479C3538.77,-64.4559 3358.67,-44.6692 3290.19,-36 3276.84,-34.3094 3262.66,-32.4022 3248.91,-30.4922"/>
<polygon fill="black" stroke="black" points="3249.38,-27.0239 3239,-29.1039 3248.41,-33.9563 3249.38,-27.0239"/>
</g>
<!-- alice.tuprolog.Operator -->
<g id="node35" class="node"><title>alice.tuprolog.Operator</title>
<ellipse fill="purple" stroke="red" cx="3986.19" cy="-18" rx="94.7833" ry="18"/>
<text text-anchor="middle" x="3986.19" y="-14.3" font-family="Times New Roman,serif" font-size="14.00">alice.tuprolog.Operator</text>
</g>
<!-- alice.tuple.logic.LogicTupleOpManager&#45;&gt;alice.tuprolog.Operator -->
<g id="edge14" class="edge"><title>alice.tuple.logic.LogicTupleOpManager&#45;&gt;alice.tuprolog.Operator</title>
<path fill="none" stroke="black" d="M3815.89,-72.9406C3849.91,-62.1672 3894.74,-47.9675 3929.86,-36.8416"/>
<polygon fill="black" stroke="black" points="3931.02,-40.1467 3939.5,-33.7904 3928.91,-33.4734 3931.02,-40.1467"/>
</g>
<!-- alice.tuprolog.OperatorManager -->
<g id="node36" class="node"><title>alice.tuprolog.OperatorManager</title>
<ellipse fill="purple" stroke="red" cx="3747.19" cy="-18" rx="126.178" ry="18"/>
<text text-anchor="middle" x="3747.19" y="-14.3" font-family="Times New Roman,serif" font-size="14.00">alice.tuprolog.OperatorManager</text>
</g>
<!-- alice.tuple.logic.LogicTupleOpManager&#45;&gt;alice.tuprolog.OperatorManager -->
<g id="edge15" class="edge"><title>alice.tuple.logic.LogicTupleOpManager&#45;&gt;alice.tuprolog.OperatorManager</title>
<path fill="none" stroke="black" d="M3760.74,-71.6966C3758.74,-63.8979 3756.32,-54.5085 3754.09,-45.8292"/>
<polygon fill="black" stroke="black" points="3757.47,-44.9176 3751.59,-36.1043 3750.69,-46.6609 3757.47,-44.9176"/>
</g>
<!-- alice.tuple.logic.TupleArgument -->
<g id="node24" class="node"><title>alice.tuple.logic.TupleArgument</title>
<ellipse fill="blue" stroke="red" cx="3467.19" cy="-90" rx="126.178" ry="18"/>
<text text-anchor="middle" x="3467.19" y="-86.3" font-family="Times New Roman,serif" font-size="14.00">alice.tuple.logic.TupleArgument</text>
</g>
<!-- alice.tuple.logic.TupleArgument&#45;&gt;alice.tuprolog.Prolog -->
<g id="edge18" class="edge"><title>alice.tuple.logic.TupleArgument&#45;&gt;alice.tuprolog.Prolog</title>
<path fill="none" stroke="black" d="M3404.93,-74.3257C3355.18,-62.5993 3285.66,-46.2145 3235.2,-34.3211"/>
<polygon fill="black" stroke="black" points="3235.91,-30.8924 3225.37,-32.005 3234.3,-37.7058 3235.91,-30.8924"/>
</g>
<!-- alice.tuple.logic.TupleArgument&#45;&gt;alice.tuprolog.Term -->
<g id="edge19" class="edge"><title>alice.tuple.logic.TupleArgument&#45;&gt;alice.tuprolog.Term</title>
<path fill="none" stroke="black" d="M3377.85,-77.2441C3275.94,-63.8357 3110.91,-42.1209 3013.74,-29.3354"/>
<polygon fill="black" stroke="black" points="3014.06,-25.8469 3003.69,-28.0123 3013.14,-32.7871 3014.06,-25.8469"/>
</g>
<!-- alice.tuple.logic.TupleArgument&#45;&gt;alice.tuprolog.InvalidTermException -->
<g id="edge17" class="edge"><title>alice.tuple.logic.TupleArgument&#45;&gt;alice.tuprolog.InvalidTermException</title>
<path fill="none" stroke="black" d="M3461.01,-71.6966C3458.2,-63.8132 3454.8,-54.3042 3451.67,-45.5464"/>
<polygon fill="black" stroke="black" points="3454.96,-44.3446 3448.3,-36.1043 3448.37,-46.699 3454.96,-44.3446"/>
</g>
<!-- alice.tuple.logic.TupleArgumentDefault -->
<g id="node25" class="node"><title>alice.tuple.logic.TupleArgumentDefault</title>
<ellipse fill="blue" stroke="red" cx="2325.19" cy="-90" rx="151.373" ry="18"/>
<text text-anchor="middle" x="2325.19" y="-86.3" font-family="Times New Roman,serif" font-size="14.00">alice.tuple.logic.TupleArgumentDefault</text>
</g>
<!-- alice.tuple.logic.TupleArgumentDefault&#45;&gt;alice.tuplecentre.api.exceptions.InvalidOperationException -->
<g id="edge20" class="edge"><title>alice.tuple.logic.TupleArgumentDefault&#45;&gt;alice.tuplecentre.api.exceptions.InvalidOperationException</title>
<path fill="none" stroke="black" d="M2230.35,-75.9566C2148.98,-64.7668 2031.09,-48.5542 1941.88,-36.2854"/>
<polygon fill="black" stroke="black" points="1942.36,-32.8178 1931.97,-34.9227 1941.4,-39.7526 1942.36,-32.8178"/>
</g>
<!-- alice.tuple.logic.TupleArgumentDefault&#45;&gt;alice.tuprolog.Prolog -->
<g id="edge22" class="edge"><title>alice.tuple.logic.TupleArgumentDefault&#45;&gt;alice.tuprolog.Prolog</title>
<path fill="none" stroke="black" d="M2431.66,-77.1719C2449.84,-75.3198 2468.55,-73.5189 2486.19,-72 2725.84,-51.3674 2786.68,-58.1074 3026.19,-36 3046.24,-34.1494 3067.82,-31.7956 3088.01,-29.4337"/>
<polygon fill="black" stroke="black" points="3088.6,-32.8892 3098.12,-28.2383 3087.78,-25.9377 3088.6,-32.8892"/>
</g>
<!-- alice.tuple.logic.TupleArgumentDefault&#45;&gt;alice.tuprolog.Term -->
<g id="edge24" class="edge"><title>alice.tuple.logic.TupleArgumentDefault&#45;&gt;alice.tuprolog.Term</title>
<path fill="none" stroke="black" d="M2430.05,-76.9666C2550.46,-63.1496 2745.37,-40.7832 2854.52,-28.257"/>
<polygon fill="black" stroke="black" points="2854.96,-31.7305 2864.49,-27.1131 2854.16,-24.7761 2854.96,-31.7305"/>
</g>
<!-- alice.tuprolog.Number -->
<g id="node37" class="node"><title>alice.tuprolog.Number</title>
<ellipse fill="purple" stroke="red" cx="2497.19" cy="-18" rx="91.784" ry="18"/>
<text text-anchor="middle" x="2497.19" y="-14.3" font-family="Times New Roman,serif" font-size="14.00">alice.tuprolog.Number</text>
</g>
<!-- alice.tuple.logic.TupleArgumentDefault&#45;&gt;alice.tuprolog.Number -->
<g id="edge21" class="edge"><title>alice.tuple.logic.TupleArgumentDefault&#45;&gt;alice.tuprolog.Number</title>
<path fill="none" stroke="black" d="M2365.52,-72.5881C2390.72,-62.3309 2423.3,-49.0732 2449.74,-38.3111"/>
<polygon fill="black" stroke="black" points="2451.24,-41.4805 2459.18,-34.4691 2448.6,-34.9969 2451.24,-41.4805"/>
</g>
<!-- alice.tuprolog.Struct -->
<g id="node38" class="node"><title>alice.tuprolog.Struct</title>
<ellipse fill="purple" stroke="red" cx="2303.19" cy="-18" rx="84.485" ry="18"/>
<text text-anchor="middle" x="2303.19" y="-14.3" font-family="Times New Roman,serif" font-size="14.00">alice.tuprolog.Struct</text>
</g>
<!-- alice.tuple.logic.TupleArgumentDefault&#45;&gt;alice.tuprolog.Struct -->
<g id="edge23" class="edge"><title>alice.tuple.logic.TupleArgumentDefault&#45;&gt;alice.tuprolog.Struct</title>
<path fill="none" stroke="black" d="M2319.75,-71.6966C2317.3,-63.8979 2314.35,-54.5085 2311.62,-45.8292"/>
<polygon fill="black" stroke="black" points="2314.9,-44.5949 2308.57,-36.1043 2308.23,-46.6937 2314.9,-44.5949"/>
</g>
<!-- alice.tuple.logic.ValueArgument -->
<g id="node26" class="node"><title>alice.tuple.logic.ValueArgument</title>
<ellipse fill="blue" stroke="red" cx="8209.19" cy="-90" rx="125.378" ry="18"/>
<text text-anchor="middle" x="8209.19" y="-86.3" font-family="Times New Roman,serif" font-size="14.00">alice.tuple.logic.ValueArgument</text>
</g>
<!-- alice.tuple.logic.VarArgument -->
<g id="node27" class="node"><title>alice.tuple.logic.VarArgument</title>
<ellipse fill="blue" stroke="red" cx="8471.19" cy="-90" rx="118.079" ry="18"/>
<text text-anchor="middle" x="8471.19" y="-86.3" font-family="Times New Roman,serif" font-size="14.00">alice.tuple.logic.VarArgument</text>
</g>
<!-- alice.tuple.Tuple -->
<g id="node28" class="node"><title>alice.tuple.Tuple</title>
<ellipse fill="blue" stroke="red" cx="8677.19" cy="-90" rx="70.3881" ry="18"/>
<text text-anchor="middle" x="8677.19" y="-86.3" font-family="Times New Roman,serif" font-size="14.00">alice.tuple.Tuple</text>
</g>
<!-- alice.tuple.TupleTemplate -->
<g id="node29" class="node"><title>alice.tuple.TupleTemplate</title>
<ellipse fill="blue" stroke="red" cx="8869.19" cy="-90" rx="103.982" ry="18"/>
<text text-anchor="middle" x="8869.19" y="-86.3" font-family="Times New Roman,serif" font-size="14.00">alice.tuple.TupleTemplate</text>
</g>
</g>
</svg>
